<?xml version="1.0" encoding="UTF-8" standalone="no"?>
<svg width="226.483mm" height="170.039mm"
 viewBox="0 0 642 482"
 xmlns="http://www.w3.org/2000/svg" xmlns:xlink="http://www.w3.org/1999/xlink"  version="1.2" baseProfile="tiny">
<title>Qt SVG Document</title>
<desc>Generated with Qt</desc>
<defs>
</defs>
<g fill="none" stroke="black" stroke-width="1" fill-rule="evenodd" stroke-linecap="square" stroke-linejoin="bevel" >

<g fill="none" stroke="#000000" stroke-opacity="1" stroke-width="1" stroke-linecap="square" stroke-linejoin="bevel" transform="matrix(1,0,0,1,0,0)"
font-family="Noto Sans" font-size="9" font-weight="400" font-style="normal" 
>
</g>

<g fill="none" stroke="#000000" stroke-opacity="1" stroke-width="1" stroke-linecap="square" stroke-linejoin="bevel" transform="matrix(1.00313,0,0,1.00313,0,0)"
font-family="Noto Sans" font-size="9" font-weight="400" font-style="normal" 
>
</g>

<g fill="none" stroke="#a0a0a4" stroke-opacity="1" stroke-dasharray="0.5,1" stroke-dashoffset="0" stroke-width="0.5" stroke-linecap="butt" stroke-linejoin="miter" stroke-miterlimit="2" transform="matrix(1.00313,0,0,1.00313,0,0)"
font-family="Noto Sans" font-size="9" font-weight="400" font-style="normal" 
>
<polyline fill="none" vector-effect="none" points="82.5,435.5 615.5,435.5 " />
</g>

<g fill="none" stroke="#000000" stroke-opacity="1" stroke-width="1" stroke-linecap="butt" stroke-linejoin="miter" stroke-miterlimit="2" transform="matrix(1.00313,0,0,1.00313,0,0)"
font-family="Noto Sans" font-size="9" font-weight="400" font-style="normal" 
>
<polyline fill="none" vector-effect="none" points="82.5,435.5 87.5,435.5 " />
<polyline fill="none" vector-effect="none" points="615.5,435.5 610.5,435.5 " />
</g>

<g fill="none" stroke="#000000" stroke-opacity="1" stroke-width="1" stroke-linecap="square" stroke-linejoin="bevel" transform="matrix(1.00313,0,0,1.00313,0,0)"
font-family="Noto Sans" font-size="9" font-weight="400" font-style="normal" 
>
</g>

<g fill="none" stroke="#000000" stroke-opacity="1" stroke-width="1" stroke-linecap="square" stroke-linejoin="bevel" transform="matrix(1.00313,0,0,1.00313,31.0969,440.372)"
font-family="Noto Sans" font-size="9" font-weight="400" font-style="normal" 
>
</g>

<g fill="none" stroke="#000000" stroke-opacity="1" stroke-width="1" stroke-linecap="square" stroke-linejoin="bevel" transform="matrix(1.00313,0,0,1.00313,31.0969,440.372)"
font-family="Noto Sans" font-size="9" font-weight="400" font-style="normal" 
>
</g>

<g fill="none" stroke="#000000" stroke-opacity="1" stroke-width="1" stroke-linecap="square" stroke-linejoin="bevel" transform="matrix(1.00313,0,0,1.00313,31.0969,440.372)"
font-family="Noto Sans" font-size="9" font-weight="400" font-style="normal" 
>
</g>

<g fill="none" stroke="#000000" stroke-opacity="1" stroke-width="1" stroke-linecap="square" stroke-linejoin="bevel" transform="matrix(1.00313,0,0,1.00313,31.0969,440.372)"
font-family="Noto Sans" font-size="9" font-weight="400" font-style="normal" 
>
</g>

<g fill="none" stroke="#000000" stroke-opacity="1" stroke-width="1" stroke-linecap="square" stroke-linejoin="bevel" transform="matrix(1.00313,0,0,1.00313,31.0969,440.372)"
font-family="Noto Sans" font-size="9" font-weight="400" font-style="normal" 
>
</g>

<g fill="none" stroke="#000000" stroke-opacity="1" stroke-width="1" stroke-linecap="square" stroke-linejoin="bevel" transform="matrix(1.00313,0,0,1.00313,31.0969,440.372)"
font-family="Sans" font-size="9" font-weight="400" font-style="normal" 
>
<text fill="#000000" fill-opacity="1" stroke="none" xml:space="preserve" x="0" y="0" font-family="Sans" font-size="9" font-weight="400" font-style="normal" 
 > 10000</text>
</g>

<g fill="none" stroke="#000000" stroke-opacity="1" stroke-width="1" stroke-linecap="square" stroke-linejoin="bevel" transform="matrix(1.00313,0,0,1.00313,31.0969,440.372)"
font-family="Noto Sans" font-size="9" font-weight="400" font-style="normal" 
>
</g>

<g fill="none" stroke="#000000" stroke-opacity="1" stroke-width="1" stroke-linecap="square" stroke-linejoin="bevel" transform="matrix(1.00313,0,0,1.00313,0,0)"
font-family="Noto Sans" font-size="9" font-weight="400" font-style="normal" 
>
</g>

<g fill="none" stroke="#a0a0a4" stroke-opacity="1" stroke-dasharray="0.5,1" stroke-dashoffset="0" stroke-width="0.5" stroke-linecap="butt" stroke-linejoin="miter" stroke-miterlimit="2" transform="matrix(1.00313,0,0,1.00313,0,0)"
font-family="Noto Sans" font-size="9" font-weight="400" font-style="normal" 
>
<polyline fill="none" vector-effect="none" points="82.5,379.5 615.5,379.5 " />
</g>

<g fill="none" stroke="#000000" stroke-opacity="1" stroke-width="1" stroke-linecap="butt" stroke-linejoin="miter" stroke-miterlimit="2" transform="matrix(1.00313,0,0,1.00313,0,0)"
font-family="Noto Sans" font-size="9" font-weight="400" font-style="normal" 
>
<polyline fill="none" vector-effect="none" points="82.5,379.5 87.5,379.5 " />
<polyline fill="none" vector-effect="none" points="615.5,379.5 610.5,379.5 " />
</g>

<g fill="none" stroke="#000000" stroke-opacity="1" stroke-width="1" stroke-linecap="square" stroke-linejoin="bevel" transform="matrix(1.00313,0,0,1.00313,0,0)"
font-family="Noto Sans" font-size="9" font-weight="400" font-style="normal" 
>
</g>

<g fill="none" stroke="#000000" stroke-opacity="1" stroke-width="1" stroke-linecap="square" stroke-linejoin="bevel" transform="matrix(1.00313,0,0,1.00313,31.0969,384.197)"
font-family="Noto Sans" font-size="9" font-weight="400" font-style="normal" 
>
</g>

<g fill="none" stroke="#000000" stroke-opacity="1" stroke-width="1" stroke-linecap="square" stroke-linejoin="bevel" transform="matrix(1.00313,0,0,1.00313,31.0969,384.197)"
font-family="Noto Sans" font-size="9" font-weight="400" font-style="normal" 
>
</g>

<g fill="none" stroke="#000000" stroke-opacity="1" stroke-width="1" stroke-linecap="square" stroke-linejoin="bevel" transform="matrix(1.00313,0,0,1.00313,31.0969,384.197)"
font-family="Noto Sans" font-size="9" font-weight="400" font-style="normal" 
>
</g>

<g fill="none" stroke="#000000" stroke-opacity="1" stroke-width="1" stroke-linecap="square" stroke-linejoin="bevel" transform="matrix(1.00313,0,0,1.00313,31.0969,384.197)"
font-family="Noto Sans" font-size="9" font-weight="400" font-style="normal" 
>
</g>

<g fill="none" stroke="#000000" stroke-opacity="1" stroke-width="1" stroke-linecap="square" stroke-linejoin="bevel" transform="matrix(1.00313,0,0,1.00313,31.0969,384.197)"
font-family="Noto Sans" font-size="9" font-weight="400" font-style="normal" 
>
</g>

<g fill="none" stroke="#000000" stroke-opacity="1" stroke-width="1" stroke-linecap="square" stroke-linejoin="bevel" transform="matrix(1.00313,0,0,1.00313,31.0969,384.197)"
font-family="Sans" font-size="9" font-weight="400" font-style="normal" 
>
<text fill="#000000" fill-opacity="1" stroke="none" xml:space="preserve" x="0" y="0" font-family="Sans" font-size="9" font-weight="400" font-style="normal" 
 > 12000</text>
</g>

<g fill="none" stroke="#000000" stroke-opacity="1" stroke-width="1" stroke-linecap="square" stroke-linejoin="bevel" transform="matrix(1.00313,0,0,1.00313,31.0969,384.197)"
font-family="Noto Sans" font-size="9" font-weight="400" font-style="normal" 
>
</g>

<g fill="none" stroke="#000000" stroke-opacity="1" stroke-width="1" stroke-linecap="square" stroke-linejoin="bevel" transform="matrix(1.00313,0,0,1.00313,0,0)"
font-family="Noto Sans" font-size="9" font-weight="400" font-style="normal" 
>
</g>

<g fill="none" stroke="#a0a0a4" stroke-opacity="1" stroke-dasharray="0.5,1" stroke-dashoffset="0" stroke-width="0.5" stroke-linecap="butt" stroke-linejoin="miter" stroke-miterlimit="2" transform="matrix(1.00313,0,0,1.00313,0,0)"
font-family="Noto Sans" font-size="9" font-weight="400" font-style="normal" 
>
<polyline fill="none" vector-effect="none" points="82.5,322.5 615.5,322.5 " />
</g>

<g fill="none" stroke="#000000" stroke-opacity="1" stroke-width="1" stroke-linecap="butt" stroke-linejoin="miter" stroke-miterlimit="2" transform="matrix(1.00313,0,0,1.00313,0,0)"
font-family="Noto Sans" font-size="9" font-weight="400" font-style="normal" 
>
<polyline fill="none" vector-effect="none" points="82.5,322.5 87.5,322.5 " />
<polyline fill="none" vector-effect="none" points="615.5,322.5 610.5,322.5 " />
</g>

<g fill="none" stroke="#000000" stroke-opacity="1" stroke-width="1" stroke-linecap="square" stroke-linejoin="bevel" transform="matrix(1.00313,0,0,1.00313,0,0)"
font-family="Noto Sans" font-size="9" font-weight="400" font-style="normal" 
>
</g>

<g fill="none" stroke="#000000" stroke-opacity="1" stroke-width="1" stroke-linecap="square" stroke-linejoin="bevel" transform="matrix(1.00313,0,0,1.00313,31.0969,328.022)"
font-family="Noto Sans" font-size="9" font-weight="400" font-style="normal" 
>
</g>

<g fill="none" stroke="#000000" stroke-opacity="1" stroke-width="1" stroke-linecap="square" stroke-linejoin="bevel" transform="matrix(1.00313,0,0,1.00313,31.0969,328.022)"
font-family="Noto Sans" font-size="9" font-weight="400" font-style="normal" 
>
</g>

<g fill="none" stroke="#000000" stroke-opacity="1" stroke-width="1" stroke-linecap="square" stroke-linejoin="bevel" transform="matrix(1.00313,0,0,1.00313,31.0969,328.022)"
font-family="Noto Sans" font-size="9" font-weight="400" font-style="normal" 
>
</g>

<g fill="none" stroke="#000000" stroke-opacity="1" stroke-width="1" stroke-linecap="square" stroke-linejoin="bevel" transform="matrix(1.00313,0,0,1.00313,31.0969,328.022)"
font-family="Noto Sans" font-size="9" font-weight="400" font-style="normal" 
>
</g>

<g fill="none" stroke="#000000" stroke-opacity="1" stroke-width="1" stroke-linecap="square" stroke-linejoin="bevel" transform="matrix(1.00313,0,0,1.00313,31.0969,328.022)"
font-family="Noto Sans" font-size="9" font-weight="400" font-style="normal" 
>
</g>

<g fill="none" stroke="#000000" stroke-opacity="1" stroke-width="1" stroke-linecap="square" stroke-linejoin="bevel" transform="matrix(1.00313,0,0,1.00313,31.0969,328.022)"
font-family="Sans" font-size="9" font-weight="400" font-style="normal" 
>
<text fill="#000000" fill-opacity="1" stroke="none" xml:space="preserve" x="0" y="0" font-family="Sans" font-size="9" font-weight="400" font-style="normal" 
 > 14000</text>
</g>

<g fill="none" stroke="#000000" stroke-opacity="1" stroke-width="1" stroke-linecap="square" stroke-linejoin="bevel" transform="matrix(1.00313,0,0,1.00313,31.0969,328.022)"
font-family="Noto Sans" font-size="9" font-weight="400" font-style="normal" 
>
</g>

<g fill="none" stroke="#000000" stroke-opacity="1" stroke-width="1" stroke-linecap="square" stroke-linejoin="bevel" transform="matrix(1.00313,0,0,1.00313,0,0)"
font-family="Noto Sans" font-size="9" font-weight="400" font-style="normal" 
>
</g>

<g fill="none" stroke="#a0a0a4" stroke-opacity="1" stroke-dasharray="0.5,1" stroke-dashoffset="0" stroke-width="0.5" stroke-linecap="butt" stroke-linejoin="miter" stroke-miterlimit="2" transform="matrix(1.00313,0,0,1.00313,0,0)"
font-family="Noto Sans" font-size="9" font-weight="400" font-style="normal" 
>
<polyline fill="none" vector-effect="none" points="82.5,266.5 615.5,266.5 " />
</g>

<g fill="none" stroke="#000000" stroke-opacity="1" stroke-width="1" stroke-linecap="butt" stroke-linejoin="miter" stroke-miterlimit="2" transform="matrix(1.00313,0,0,1.00313,0,0)"
font-family="Noto Sans" font-size="9" font-weight="400" font-style="normal" 
>
<polyline fill="none" vector-effect="none" points="82.5,266.5 87.5,266.5 " />
<polyline fill="none" vector-effect="none" points="615.5,266.5 610.5,266.5 " />
</g>

<g fill="none" stroke="#000000" stroke-opacity="1" stroke-width="1" stroke-linecap="square" stroke-linejoin="bevel" transform="matrix(1.00313,0,0,1.00313,0,0)"
font-family="Noto Sans" font-size="9" font-weight="400" font-style="normal" 
>
</g>

<g fill="none" stroke="#000000" stroke-opacity="1" stroke-width="1" stroke-linecap="square" stroke-linejoin="bevel" transform="matrix(1.00313,0,0,1.00313,31.0969,271.847)"
font-family="Noto Sans" font-size="9" font-weight="400" font-style="normal" 
>
</g>

<g fill="none" stroke="#000000" stroke-opacity="1" stroke-width="1" stroke-linecap="square" stroke-linejoin="bevel" transform="matrix(1.00313,0,0,1.00313,31.0969,271.847)"
font-family="Noto Sans" font-size="9" font-weight="400" font-style="normal" 
>
</g>

<g fill="none" stroke="#000000" stroke-opacity="1" stroke-width="1" stroke-linecap="square" stroke-linejoin="bevel" transform="matrix(1.00313,0,0,1.00313,31.0969,271.847)"
font-family="Noto Sans" font-size="9" font-weight="400" font-style="normal" 
>
</g>

<g fill="none" stroke="#000000" stroke-opacity="1" stroke-width="1" stroke-linecap="square" stroke-linejoin="bevel" transform="matrix(1.00313,0,0,1.00313,31.0969,271.847)"
font-family="Noto Sans" font-size="9" font-weight="400" font-style="normal" 
>
</g>

<g fill="none" stroke="#000000" stroke-opacity="1" stroke-width="1" stroke-linecap="square" stroke-linejoin="bevel" transform="matrix(1.00313,0,0,1.00313,31.0969,271.847)"
font-family="Noto Sans" font-size="9" font-weight="400" font-style="normal" 
>
</g>

<g fill="none" stroke="#000000" stroke-opacity="1" stroke-width="1" stroke-linecap="square" stroke-linejoin="bevel" transform="matrix(1.00313,0,0,1.00313,31.0969,271.847)"
font-family="Sans" font-size="9" font-weight="400" font-style="normal" 
>
<text fill="#000000" fill-opacity="1" stroke="none" xml:space="preserve" x="0" y="0" font-family="Sans" font-size="9" font-weight="400" font-style="normal" 
 > 16000</text>
</g>

<g fill="none" stroke="#000000" stroke-opacity="1" stroke-width="1" stroke-linecap="square" stroke-linejoin="bevel" transform="matrix(1.00313,0,0,1.00313,31.0969,271.847)"
font-family="Noto Sans" font-size="9" font-weight="400" font-style="normal" 
>
</g>

<g fill="none" stroke="#000000" stroke-opacity="1" stroke-width="1" stroke-linecap="square" stroke-linejoin="bevel" transform="matrix(1.00313,0,0,1.00313,0,0)"
font-family="Noto Sans" font-size="9" font-weight="400" font-style="normal" 
>
</g>

<g fill="none" stroke="#a0a0a4" stroke-opacity="1" stroke-dasharray="0.5,1" stroke-dashoffset="0" stroke-width="0.5" stroke-linecap="butt" stroke-linejoin="miter" stroke-miterlimit="2" transform="matrix(1.00313,0,0,1.00313,0,0)"
font-family="Noto Sans" font-size="9" font-weight="400" font-style="normal" 
>
<polyline fill="none" vector-effect="none" points="82.5,210.5 615.5,210.5 " />
</g>

<g fill="none" stroke="#000000" stroke-opacity="1" stroke-width="1" stroke-linecap="butt" stroke-linejoin="miter" stroke-miterlimit="2" transform="matrix(1.00313,0,0,1.00313,0,0)"
font-family="Noto Sans" font-size="9" font-weight="400" font-style="normal" 
>
<polyline fill="none" vector-effect="none" points="82.5,210.5 87.5,210.5 " />
<polyline fill="none" vector-effect="none" points="615.5,210.5 610.5,210.5 " />
</g>

<g fill="none" stroke="#000000" stroke-opacity="1" stroke-width="1" stroke-linecap="square" stroke-linejoin="bevel" transform="matrix(1.00313,0,0,1.00313,0,0)"
font-family="Noto Sans" font-size="9" font-weight="400" font-style="normal" 
>
</g>

<g fill="none" stroke="#000000" stroke-opacity="1" stroke-width="1" stroke-linecap="square" stroke-linejoin="bevel" transform="matrix(1.00313,0,0,1.00313,31.0969,215.672)"
font-family="Noto Sans" font-size="9" font-weight="400" font-style="normal" 
>
</g>

<g fill="none" stroke="#000000" stroke-opacity="1" stroke-width="1" stroke-linecap="square" stroke-linejoin="bevel" transform="matrix(1.00313,0,0,1.00313,31.0969,215.672)"
font-family="Noto Sans" font-size="9" font-weight="400" font-style="normal" 
>
</g>

<g fill="none" stroke="#000000" stroke-opacity="1" stroke-width="1" stroke-linecap="square" stroke-linejoin="bevel" transform="matrix(1.00313,0,0,1.00313,31.0969,215.672)"
font-family="Noto Sans" font-size="9" font-weight="400" font-style="normal" 
>
</g>

<g fill="none" stroke="#000000" stroke-opacity="1" stroke-width="1" stroke-linecap="square" stroke-linejoin="bevel" transform="matrix(1.00313,0,0,1.00313,31.0969,215.672)"
font-family="Noto Sans" font-size="9" font-weight="400" font-style="normal" 
>
</g>

<g fill="none" stroke="#000000" stroke-opacity="1" stroke-width="1" stroke-linecap="square" stroke-linejoin="bevel" transform="matrix(1.00313,0,0,1.00313,31.0969,215.672)"
font-family="Noto Sans" font-size="9" font-weight="400" font-style="normal" 
>
</g>

<g fill="none" stroke="#000000" stroke-opacity="1" stroke-width="1" stroke-linecap="square" stroke-linejoin="bevel" transform="matrix(1.00313,0,0,1.00313,31.0969,215.672)"
font-family="Sans" font-size="9" font-weight="400" font-style="normal" 
>
<text fill="#000000" fill-opacity="1" stroke="none" xml:space="preserve" x="0" y="0" font-family="Sans" font-size="9" font-weight="400" font-style="normal" 
 > 18000</text>
</g>

<g fill="none" stroke="#000000" stroke-opacity="1" stroke-width="1" stroke-linecap="square" stroke-linejoin="bevel" transform="matrix(1.00313,0,0,1.00313,31.0969,215.672)"
font-family="Noto Sans" font-size="9" font-weight="400" font-style="normal" 
>
</g>

<g fill="none" stroke="#000000" stroke-opacity="1" stroke-width="1" stroke-linecap="square" stroke-linejoin="bevel" transform="matrix(1.00313,0,0,1.00313,0,0)"
font-family="Noto Sans" font-size="9" font-weight="400" font-style="normal" 
>
</g>

<g fill="none" stroke="#a0a0a4" stroke-opacity="1" stroke-dasharray="0.5,1" stroke-dashoffset="0" stroke-width="0.5" stroke-linecap="butt" stroke-linejoin="miter" stroke-miterlimit="2" transform="matrix(1.00313,0,0,1.00313,0,0)"
font-family="Noto Sans" font-size="9" font-weight="400" font-style="normal" 
>
<polyline fill="none" vector-effect="none" points="82.5,154.5 615.5,154.5 " />
</g>

<g fill="none" stroke="#000000" stroke-opacity="1" stroke-width="1" stroke-linecap="butt" stroke-linejoin="miter" stroke-miterlimit="2" transform="matrix(1.00313,0,0,1.00313,0,0)"
font-family="Noto Sans" font-size="9" font-weight="400" font-style="normal" 
>
<polyline fill="none" vector-effect="none" points="82.5,154.5 87.5,154.5 " />
<polyline fill="none" vector-effect="none" points="615.5,154.5 610.5,154.5 " />
</g>

<g fill="none" stroke="#000000" stroke-opacity="1" stroke-width="1" stroke-linecap="square" stroke-linejoin="bevel" transform="matrix(1.00313,0,0,1.00313,0,0)"
font-family="Noto Sans" font-size="9" font-weight="400" font-style="normal" 
>
</g>

<g fill="none" stroke="#000000" stroke-opacity="1" stroke-width="1" stroke-linecap="square" stroke-linejoin="bevel" transform="matrix(1.00313,0,0,1.00313,31.0969,158.494)"
font-family="Noto Sans" font-size="9" font-weight="400" font-style="normal" 
>
</g>

<g fill="none" stroke="#000000" stroke-opacity="1" stroke-width="1" stroke-linecap="square" stroke-linejoin="bevel" transform="matrix(1.00313,0,0,1.00313,31.0969,158.494)"
font-family="Noto Sans" font-size="9" font-weight="400" font-style="normal" 
>
</g>

<g fill="none" stroke="#000000" stroke-opacity="1" stroke-width="1" stroke-linecap="square" stroke-linejoin="bevel" transform="matrix(1.00313,0,0,1.00313,31.0969,158.494)"
font-family="Noto Sans" font-size="9" font-weight="400" font-style="normal" 
>
</g>

<g fill="none" stroke="#000000" stroke-opacity="1" stroke-width="1" stroke-linecap="square" stroke-linejoin="bevel" transform="matrix(1.00313,0,0,1.00313,31.0969,158.494)"
font-family="Noto Sans" font-size="9" font-weight="400" font-style="normal" 
>
</g>

<g fill="none" stroke="#000000" stroke-opacity="1" stroke-width="1" stroke-linecap="square" stroke-linejoin="bevel" transform="matrix(1.00313,0,0,1.00313,31.0969,158.494)"
font-family="Noto Sans" font-size="9" font-weight="400" font-style="normal" 
>
</g>

<g fill="none" stroke="#000000" stroke-opacity="1" stroke-width="1" stroke-linecap="square" stroke-linejoin="bevel" transform="matrix(1.00313,0,0,1.00313,31.0969,158.494)"
font-family="Sans" font-size="9" font-weight="400" font-style="normal" 
>
<text fill="#000000" fill-opacity="1" stroke="none" xml:space="preserve" x="0" y="0" font-family="Sans" font-size="9" font-weight="400" font-style="normal" 
 > 20000</text>
</g>

<g fill="none" stroke="#000000" stroke-opacity="1" stroke-width="1" stroke-linecap="square" stroke-linejoin="bevel" transform="matrix(1.00313,0,0,1.00313,31.0969,158.494)"
font-family="Noto Sans" font-size="9" font-weight="400" font-style="normal" 
>
</g>

<g fill="none" stroke="#000000" stroke-opacity="1" stroke-width="1" stroke-linecap="square" stroke-linejoin="bevel" transform="matrix(1.00313,0,0,1.00313,0,0)"
font-family="Noto Sans" font-size="9" font-weight="400" font-style="normal" 
>
</g>

<g fill="none" stroke="#a0a0a4" stroke-opacity="1" stroke-dasharray="0.5,1" stroke-dashoffset="0" stroke-width="0.5" stroke-linecap="butt" stroke-linejoin="miter" stroke-miterlimit="2" transform="matrix(1.00313,0,0,1.00313,0,0)"
font-family="Noto Sans" font-size="9" font-weight="400" font-style="normal" 
>
<polyline fill="none" vector-effect="none" points="82.5,98.5 615.5,98.5 " />
</g>

<g fill="none" stroke="#000000" stroke-opacity="1" stroke-width="1" stroke-linecap="butt" stroke-linejoin="miter" stroke-miterlimit="2" transform="matrix(1.00313,0,0,1.00313,0,0)"
font-family="Noto Sans" font-size="9" font-weight="400" font-style="normal" 
>
<polyline fill="none" vector-effect="none" points="82.5,98.5 87.5,98.5 " />
<polyline fill="none" vector-effect="none" points="615.5,98.5 610.5,98.5 " />
</g>

<g fill="none" stroke="#000000" stroke-opacity="1" stroke-width="1" stroke-linecap="square" stroke-linejoin="bevel" transform="matrix(1.00313,0,0,1.00313,0,0)"
font-family="Noto Sans" font-size="9" font-weight="400" font-style="normal" 
>
</g>

<g fill="none" stroke="#000000" stroke-opacity="1" stroke-width="1" stroke-linecap="square" stroke-linejoin="bevel" transform="matrix(1.00313,0,0,1.00313,31.0969,102.319)"
font-family="Noto Sans" font-size="9" font-weight="400" font-style="normal" 
>
</g>

<g fill="none" stroke="#000000" stroke-opacity="1" stroke-width="1" stroke-linecap="square" stroke-linejoin="bevel" transform="matrix(1.00313,0,0,1.00313,31.0969,102.319)"
font-family="Noto Sans" font-size="9" font-weight="400" font-style="normal" 
>
</g>

<g fill="none" stroke="#000000" stroke-opacity="1" stroke-width="1" stroke-linecap="square" stroke-linejoin="bevel" transform="matrix(1.00313,0,0,1.00313,31.0969,102.319)"
font-family="Noto Sans" font-size="9" font-weight="400" font-style="normal" 
>
</g>

<g fill="none" stroke="#000000" stroke-opacity="1" stroke-width="1" stroke-linecap="square" stroke-linejoin="bevel" transform="matrix(1.00313,0,0,1.00313,31.0969,102.319)"
font-family="Noto Sans" font-size="9" font-weight="400" font-style="normal" 
>
</g>

<g fill="none" stroke="#000000" stroke-opacity="1" stroke-width="1" stroke-linecap="square" stroke-linejoin="bevel" transform="matrix(1.00313,0,0,1.00313,31.0969,102.319)"
font-family="Noto Sans" font-size="9" font-weight="400" font-style="normal" 
>
</g>

<g fill="none" stroke="#000000" stroke-opacity="1" stroke-width="1" stroke-linecap="square" stroke-linejoin="bevel" transform="matrix(1.00313,0,0,1.00313,31.0969,102.319)"
font-family="Sans" font-size="9" font-weight="400" font-style="normal" 
>
<text fill="#000000" fill-opacity="1" stroke="none" xml:space="preserve" x="0" y="0" font-family="Sans" font-size="9" font-weight="400" font-style="normal" 
 > 22000</text>
</g>

<g fill="none" stroke="#000000" stroke-opacity="1" stroke-width="1" stroke-linecap="square" stroke-linejoin="bevel" transform="matrix(1.00313,0,0,1.00313,31.0969,102.319)"
font-family="Noto Sans" font-size="9" font-weight="400" font-style="normal" 
>
</g>

<g fill="none" stroke="#000000" stroke-opacity="1" stroke-width="1" stroke-linecap="square" stroke-linejoin="bevel" transform="matrix(1.00313,0,0,1.00313,0,0)"
font-family="Noto Sans" font-size="9" font-weight="400" font-style="normal" 
>
</g>

<g fill="none" stroke="#a0a0a4" stroke-opacity="1" stroke-dasharray="0.5,1" stroke-dashoffset="0" stroke-width="0.5" stroke-linecap="butt" stroke-linejoin="miter" stroke-miterlimit="2" transform="matrix(1.00313,0,0,1.00313,0,0)"
font-family="Noto Sans" font-size="9" font-weight="400" font-style="normal" 
>
<polyline fill="none" vector-effect="none" points="82.5,42.5 615.5,42.5 " />
</g>

<g fill="none" stroke="#000000" stroke-opacity="1" stroke-width="1" stroke-linecap="butt" stroke-linejoin="miter" stroke-miterlimit="2" transform="matrix(1.00313,0,0,1.00313,0,0)"
font-family="Noto Sans" font-size="9" font-weight="400" font-style="normal" 
>
<polyline fill="none" vector-effect="none" points="82.5,42.5 87.5,42.5 " />
<polyline fill="none" vector-effect="none" points="615.5,42.5 610.5,42.5 " />
</g>

<g fill="none" stroke="#000000" stroke-opacity="1" stroke-width="1" stroke-linecap="square" stroke-linejoin="bevel" transform="matrix(1.00313,0,0,1.00313,0,0)"
font-family="Noto Sans" font-size="9" font-weight="400" font-style="normal" 
>
</g>

<g fill="none" stroke="#000000" stroke-opacity="1" stroke-width="1" stroke-linecap="square" stroke-linejoin="bevel" transform="matrix(1.00313,0,0,1.00313,31.0969,46.1438)"
font-family="Noto Sans" font-size="9" font-weight="400" font-style="normal" 
>
</g>

<g fill="none" stroke="#000000" stroke-opacity="1" stroke-width="1" stroke-linecap="square" stroke-linejoin="bevel" transform="matrix(1.00313,0,0,1.00313,31.0969,46.1438)"
font-family="Noto Sans" font-size="9" font-weight="400" font-style="normal" 
>
</g>

<g fill="none" stroke="#000000" stroke-opacity="1" stroke-width="1" stroke-linecap="square" stroke-linejoin="bevel" transform="matrix(1.00313,0,0,1.00313,31.0969,46.1438)"
font-family="Noto Sans" font-size="9" font-weight="400" font-style="normal" 
>
</g>

<g fill="none" stroke="#000000" stroke-opacity="1" stroke-width="1" stroke-linecap="square" stroke-linejoin="bevel" transform="matrix(1.00313,0,0,1.00313,31.0969,46.1438)"
font-family="Noto Sans" font-size="9" font-weight="400" font-style="normal" 
>
</g>

<g fill="none" stroke="#000000" stroke-opacity="1" stroke-width="1" stroke-linecap="square" stroke-linejoin="bevel" transform="matrix(1.00313,0,0,1.00313,31.0969,46.1438)"
font-family="Noto Sans" font-size="9" font-weight="400" font-style="normal" 
>
</g>

<g fill="none" stroke="#000000" stroke-opacity="1" stroke-width="1" stroke-linecap="square" stroke-linejoin="bevel" transform="matrix(1.00313,0,0,1.00313,31.0969,46.1438)"
font-family="Sans" font-size="9" font-weight="400" font-style="normal" 
>
<text fill="#000000" fill-opacity="1" stroke="none" xml:space="preserve" x="0" y="0" font-family="Sans" font-size="9" font-weight="400" font-style="normal" 
 > 24000</text>
</g>

<g fill="none" stroke="#000000" stroke-opacity="1" stroke-width="1" stroke-linecap="square" stroke-linejoin="bevel" transform="matrix(1.00313,0,0,1.00313,31.0969,46.1438)"
font-family="Noto Sans" font-size="9" font-weight="400" font-style="normal" 
>
</g>

<g fill="none" stroke="#000000" stroke-opacity="1" stroke-width="1" stroke-linecap="square" stroke-linejoin="bevel" transform="matrix(1.00313,0,0,1.00313,0,0)"
font-family="Noto Sans" font-size="9" font-weight="400" font-style="normal" 
>
</g>

<g fill="none" stroke="#a0a0a4" stroke-opacity="1" stroke-dasharray="0.5,1" stroke-dashoffset="0" stroke-width="0.5" stroke-linecap="butt" stroke-linejoin="miter" stroke-miterlimit="2" transform="matrix(1.00313,0,0,1.00313,0,0)"
font-family="Noto Sans" font-size="9" font-weight="400" font-style="normal" 
>
<polyline fill="none" vector-effect="none" points="82.5,435.5 82.5,42.5 " />
</g>

<g fill="none" stroke="#000000" stroke-opacity="1" stroke-width="1" stroke-linecap="butt" stroke-linejoin="miter" stroke-miterlimit="2" transform="matrix(1.00313,0,0,1.00313,0,0)"
font-family="Noto Sans" font-size="9" font-weight="400" font-style="normal" 
>
<polyline fill="none" vector-effect="none" points="82.5,435.5 82.5,429.5 " />
<polyline fill="none" vector-effect="none" points="82.5,42.5 82.5,47.5 " />
</g>

<g fill="none" stroke="#000000" stroke-opacity="1" stroke-width="1" stroke-linecap="square" stroke-linejoin="bevel" transform="matrix(1.00313,0,0,1.00313,0,0)"
font-family="Noto Sans" font-size="9" font-weight="400" font-style="normal" 
>
</g>

<g fill="none" stroke="#000000" stroke-opacity="1" stroke-width="1" stroke-linecap="square" stroke-linejoin="bevel" transform="matrix(1.00313,0,0,1.00313,64.2,454.416)"
font-family="Noto Sans" font-size="9" font-weight="400" font-style="normal" 
>
</g>

<g fill="none" stroke="#000000" stroke-opacity="1" stroke-width="1" stroke-linecap="square" stroke-linejoin="bevel" transform="matrix(1.00313,0,0,1.00313,64.2,454.416)"
font-family="Noto Sans" font-size="9" font-weight="400" font-style="normal" 
>
</g>

<g fill="none" stroke="#000000" stroke-opacity="1" stroke-width="1" stroke-linecap="square" stroke-linejoin="bevel" transform="matrix(1.00313,0,0,1.00313,64.2,454.416)"
font-family="Noto Sans" font-size="9" font-weight="400" font-style="normal" 
>
</g>

<g fill="none" stroke="#000000" stroke-opacity="1" stroke-width="1" stroke-linecap="square" stroke-linejoin="bevel" transform="matrix(1.00313,0,0,1.00313,64.2,454.416)"
font-family="Noto Sans" font-size="9" font-weight="400" font-style="normal" 
>
</g>

<g fill="none" stroke="#000000" stroke-opacity="1" stroke-width="1" stroke-linecap="square" stroke-linejoin="bevel" transform="matrix(1.00313,0,0,1.00313,64.2,454.416)"
font-family="Noto Sans" font-size="9" font-weight="400" font-style="normal" 
>
</g>

<g fill="none" stroke="#000000" stroke-opacity="1" stroke-width="1" stroke-linecap="square" stroke-linejoin="bevel" transform="matrix(1.00313,0,0,1.00313,64.2,454.416)"
font-family="Sans" font-size="9" font-weight="400" font-style="normal" 
>
<text fill="#000000" fill-opacity="1" stroke="none" xml:space="preserve" x="0" y="0" font-family="Sans" font-size="9" font-weight="400" font-style="normal" 
 >110.0</text>
</g>

<g fill="none" stroke="#000000" stroke-opacity="1" stroke-width="1" stroke-linecap="square" stroke-linejoin="bevel" transform="matrix(1.00313,0,0,1.00313,64.2,454.416)"
font-family="Noto Sans" font-size="9" font-weight="400" font-style="normal" 
>
</g>

<g fill="none" stroke="#000000" stroke-opacity="1" stroke-width="1" stroke-linecap="square" stroke-linejoin="bevel" transform="matrix(1.00313,0,0,1.00313,0,0)"
font-family="Noto Sans" font-size="9" font-weight="400" font-style="normal" 
>
</g>

<g fill="none" stroke="#a0a0a4" stroke-opacity="1" stroke-dasharray="0.5,1" stroke-dashoffset="0" stroke-width="0.5" stroke-linecap="butt" stroke-linejoin="miter" stroke-miterlimit="2" transform="matrix(1.00313,0,0,1.00313,0,0)"
font-family="Noto Sans" font-size="9" font-weight="400" font-style="normal" 
>
<polyline fill="none" vector-effect="none" points="188.5,435.5 188.5,61.5 " />
<polyline fill="none" vector-effect="none" points="188.5,47.5 188.5,42.5 " />
</g>

<g fill="none" stroke="#000000" stroke-opacity="1" stroke-width="1" stroke-linecap="butt" stroke-linejoin="miter" stroke-miterlimit="2" transform="matrix(1.00313,0,0,1.00313,0,0)"
font-family="Noto Sans" font-size="9" font-weight="400" font-style="normal" 
>
<polyline fill="none" vector-effect="none" points="188.5,435.5 188.5,429.5 " />
<polyline fill="none" vector-effect="none" points="188.5,42.5 188.5,47.5 " />
</g>

<g fill="none" stroke="#000000" stroke-opacity="1" stroke-width="1" stroke-linecap="square" stroke-linejoin="bevel" transform="matrix(1.00313,0,0,1.00313,0,0)"
font-family="Noto Sans" font-size="9" font-weight="400" font-style="normal" 
>
</g>

<g fill="none" stroke="#000000" stroke-opacity="1" stroke-width="1" stroke-linecap="square" stroke-linejoin="bevel" transform="matrix(1.00313,0,0,1.00313,171.534,454.416)"
font-family="Noto Sans" font-size="9" font-weight="400" font-style="normal" 
>
</g>

<g fill="none" stroke="#000000" stroke-opacity="1" stroke-width="1" stroke-linecap="square" stroke-linejoin="bevel" transform="matrix(1.00313,0,0,1.00313,171.534,454.416)"
font-family="Noto Sans" font-size="9" font-weight="400" font-style="normal" 
>
</g>

<g fill="none" stroke="#000000" stroke-opacity="1" stroke-width="1" stroke-linecap="square" stroke-linejoin="bevel" transform="matrix(1.00313,0,0,1.00313,171.534,454.416)"
font-family="Noto Sans" font-size="9" font-weight="400" font-style="normal" 
>
</g>

<g fill="none" stroke="#000000" stroke-opacity="1" stroke-width="1" stroke-linecap="square" stroke-linejoin="bevel" transform="matrix(1.00313,0,0,1.00313,171.534,454.416)"
font-family="Noto Sans" font-size="9" font-weight="400" font-style="normal" 
>
</g>

<g fill="none" stroke="#000000" stroke-opacity="1" stroke-width="1" stroke-linecap="square" stroke-linejoin="bevel" transform="matrix(1.00313,0,0,1.00313,171.534,454.416)"
font-family="Noto Sans" font-size="9" font-weight="400" font-style="normal" 
>
</g>

<g fill="none" stroke="#000000" stroke-opacity="1" stroke-width="1" stroke-linecap="square" stroke-linejoin="bevel" transform="matrix(1.00313,0,0,1.00313,171.534,454.416)"
font-family="Sans" font-size="9" font-weight="400" font-style="normal" 
>
<text fill="#000000" fill-opacity="1" stroke="none" xml:space="preserve" x="0" y="0" font-family="Sans" font-size="9" font-weight="400" font-style="normal" 
 >120.0</text>
</g>

<g fill="none" stroke="#000000" stroke-opacity="1" stroke-width="1" stroke-linecap="square" stroke-linejoin="bevel" transform="matrix(1.00313,0,0,1.00313,171.534,454.416)"
font-family="Noto Sans" font-size="9" font-weight="400" font-style="normal" 
>
</g>

<g fill="none" stroke="#000000" stroke-opacity="1" stroke-width="1" stroke-linecap="square" stroke-linejoin="bevel" transform="matrix(1.00313,0,0,1.00313,0,0)"
font-family="Noto Sans" font-size="9" font-weight="400" font-style="normal" 
>
</g>

<g fill="none" stroke="#a0a0a4" stroke-opacity="1" stroke-dasharray="0.5,1" stroke-dashoffset="0" stroke-width="0.5" stroke-linecap="butt" stroke-linejoin="miter" stroke-miterlimit="2" transform="matrix(1.00313,0,0,1.00313,0,0)"
font-family="Noto Sans" font-size="9" font-weight="400" font-style="normal" 
>
<polyline fill="none" vector-effect="none" points="295.5,435.5 295.5,42.5 " />
</g>

<g fill="none" stroke="#000000" stroke-opacity="1" stroke-width="1" stroke-linecap="butt" stroke-linejoin="miter" stroke-miterlimit="2" transform="matrix(1.00313,0,0,1.00313,0,0)"
font-family="Noto Sans" font-size="9" font-weight="400" font-style="normal" 
>
<polyline fill="none" vector-effect="none" points="295.5,435.5 295.5,429.5 " />
<polyline fill="none" vector-effect="none" points="295.5,42.5 295.5,47.5 " />
</g>

<g fill="none" stroke="#000000" stroke-opacity="1" stroke-width="1" stroke-linecap="square" stroke-linejoin="bevel" transform="matrix(1.00313,0,0,1.00313,0,0)"
font-family="Noto Sans" font-size="9" font-weight="400" font-style="normal" 
>
</g>

<g fill="none" stroke="#000000" stroke-opacity="1" stroke-width="1" stroke-linecap="square" stroke-linejoin="bevel" transform="matrix(1.00313,0,0,1.00313,278.869,454.416)"
font-family="Noto Sans" font-size="9" font-weight="400" font-style="normal" 
>
</g>

<g fill="none" stroke="#000000" stroke-opacity="1" stroke-width="1" stroke-linecap="square" stroke-linejoin="bevel" transform="matrix(1.00313,0,0,1.00313,278.869,454.416)"
font-family="Noto Sans" font-size="9" font-weight="400" font-style="normal" 
>
</g>

<g fill="none" stroke="#000000" stroke-opacity="1" stroke-width="1" stroke-linecap="square" stroke-linejoin="bevel" transform="matrix(1.00313,0,0,1.00313,278.869,454.416)"
font-family="Noto Sans" font-size="9" font-weight="400" font-style="normal" 
>
</g>

<g fill="none" stroke="#000000" stroke-opacity="1" stroke-width="1" stroke-linecap="square" stroke-linejoin="bevel" transform="matrix(1.00313,0,0,1.00313,278.869,454.416)"
font-family="Noto Sans" font-size="9" font-weight="400" font-style="normal" 
>
</g>

<g fill="none" stroke="#000000" stroke-opacity="1" stroke-width="1" stroke-linecap="square" stroke-linejoin="bevel" transform="matrix(1.00313,0,0,1.00313,278.869,454.416)"
font-family="Noto Sans" font-size="9" font-weight="400" font-style="normal" 
>
</g>

<g fill="none" stroke="#000000" stroke-opacity="1" stroke-width="1" stroke-linecap="square" stroke-linejoin="bevel" transform="matrix(1.00313,0,0,1.00313,278.869,454.416)"
font-family="Sans" font-size="9" font-weight="400" font-style="normal" 
>
<text fill="#000000" fill-opacity="1" stroke="none" xml:space="preserve" x="0" y="0" font-family="Sans" font-size="9" font-weight="400" font-style="normal" 
 >130.0</text>
</g>

<g fill="none" stroke="#000000" stroke-opacity="1" stroke-width="1" stroke-linecap="square" stroke-linejoin="bevel" transform="matrix(1.00313,0,0,1.00313,278.869,454.416)"
font-family="Noto Sans" font-size="9" font-weight="400" font-style="normal" 
>
</g>

<g fill="none" stroke="#000000" stroke-opacity="1" stroke-width="1" stroke-linecap="square" stroke-linejoin="bevel" transform="matrix(1.00313,0,0,1.00313,0,0)"
font-family="Noto Sans" font-size="9" font-weight="400" font-style="normal" 
>
</g>

<g fill="none" stroke="#a0a0a4" stroke-opacity="1" stroke-dasharray="0.5,1" stroke-dashoffset="0" stroke-width="0.5" stroke-linecap="butt" stroke-linejoin="miter" stroke-miterlimit="2" transform="matrix(1.00313,0,0,1.00313,0,0)"
font-family="Noto Sans" font-size="9" font-weight="400" font-style="normal" 
>
<polyline fill="none" vector-effect="none" points="402.5,435.5 402.5,42.5 " />
</g>

<g fill="none" stroke="#000000" stroke-opacity="1" stroke-width="1" stroke-linecap="butt" stroke-linejoin="miter" stroke-miterlimit="2" transform="matrix(1.00313,0,0,1.00313,0,0)"
font-family="Noto Sans" font-size="9" font-weight="400" font-style="normal" 
>
<polyline fill="none" vector-effect="none" points="402.5,435.5 402.5,429.5 " />
<polyline fill="none" vector-effect="none" points="402.5,42.5 402.5,47.5 " />
</g>

<g fill="none" stroke="#000000" stroke-opacity="1" stroke-width="1" stroke-linecap="square" stroke-linejoin="bevel" transform="matrix(1.00313,0,0,1.00313,0,0)"
font-family="Noto Sans" font-size="9" font-weight="400" font-style="normal" 
>
</g>

<g fill="none" stroke="#000000" stroke-opacity="1" stroke-width="1" stroke-linecap="square" stroke-linejoin="bevel" transform="matrix(1.00313,0,0,1.00313,385.2,454.416)"
font-family="Noto Sans" font-size="9" font-weight="400" font-style="normal" 
>
</g>

<g fill="none" stroke="#000000" stroke-opacity="1" stroke-width="1" stroke-linecap="square" stroke-linejoin="bevel" transform="matrix(1.00313,0,0,1.00313,385.2,454.416)"
font-family="Noto Sans" font-size="9" font-weight="400" font-style="normal" 
>
</g>

<g fill="none" stroke="#000000" stroke-opacity="1" stroke-width="1" stroke-linecap="square" stroke-linejoin="bevel" transform="matrix(1.00313,0,0,1.00313,385.2,454.416)"
font-family="Noto Sans" font-size="9" font-weight="400" font-style="normal" 
>
</g>

<g fill="none" stroke="#000000" stroke-opacity="1" stroke-width="1" stroke-linecap="square" stroke-linejoin="bevel" transform="matrix(1.00313,0,0,1.00313,385.2,454.416)"
font-family="Noto Sans" font-size="9" font-weight="400" font-style="normal" 
>
</g>

<g fill="none" stroke="#000000" stroke-opacity="1" stroke-width="1" stroke-linecap="square" stroke-linejoin="bevel" transform="matrix(1.00313,0,0,1.00313,385.2,454.416)"
font-family="Noto Sans" font-size="9" font-weight="400" font-style="normal" 
>
</g>

<g fill="none" stroke="#000000" stroke-opacity="1" stroke-width="1" stroke-linecap="square" stroke-linejoin="bevel" transform="matrix(1.00313,0,0,1.00313,385.2,454.416)"
font-family="Sans" font-size="9" font-weight="400" font-style="normal" 
>
<text fill="#000000" fill-opacity="1" stroke="none" xml:space="preserve" x="0" y="0" font-family="Sans" font-size="9" font-weight="400" font-style="normal" 
 >140.0</text>
</g>

<g fill="none" stroke="#000000" stroke-opacity="1" stroke-width="1" stroke-linecap="square" stroke-linejoin="bevel" transform="matrix(1.00313,0,0,1.00313,385.2,454.416)"
font-family="Noto Sans" font-size="9" font-weight="400" font-style="normal" 
>
</g>

<g fill="none" stroke="#000000" stroke-opacity="1" stroke-width="1" stroke-linecap="square" stroke-linejoin="bevel" transform="matrix(1.00313,0,0,1.00313,0,0)"
font-family="Noto Sans" font-size="9" font-weight="400" font-style="normal" 
>
</g>

<g fill="none" stroke="#a0a0a4" stroke-opacity="1" stroke-dasharray="0.5,1" stroke-dashoffset="0" stroke-width="0.5" stroke-linecap="butt" stroke-linejoin="miter" stroke-miterlimit="2" transform="matrix(1.00313,0,0,1.00313,0,0)"
font-family="Noto Sans" font-size="9" font-weight="400" font-style="normal" 
>
<polyline fill="none" vector-effect="none" points="509.5,435.5 509.5,42.5 " />
</g>

<g fill="none" stroke="#000000" stroke-opacity="1" stroke-width="1" stroke-linecap="butt" stroke-linejoin="miter" stroke-miterlimit="2" transform="matrix(1.00313,0,0,1.00313,0,0)"
font-family="Noto Sans" font-size="9" font-weight="400" font-style="normal" 
>
<polyline fill="none" vector-effect="none" points="509.5,435.5 509.5,429.5 " />
<polyline fill="none" vector-effect="none" points="509.5,42.5 509.5,47.5 " />
</g>

<g fill="none" stroke="#000000" stroke-opacity="1" stroke-width="1" stroke-linecap="square" stroke-linejoin="bevel" transform="matrix(1.00313,0,0,1.00313,0,0)"
font-family="Noto Sans" font-size="9" font-weight="400" font-style="normal" 
>
</g>

<g fill="none" stroke="#000000" stroke-opacity="1" stroke-width="1" stroke-linecap="square" stroke-linejoin="bevel" transform="matrix(1.00313,0,0,1.00313,492.534,454.416)"
font-family="Noto Sans" font-size="9" font-weight="400" font-style="normal" 
>
</g>

<g fill="none" stroke="#000000" stroke-opacity="1" stroke-width="1" stroke-linecap="square" stroke-linejoin="bevel" transform="matrix(1.00313,0,0,1.00313,492.534,454.416)"
font-family="Noto Sans" font-size="9" font-weight="400" font-style="normal" 
>
</g>

<g fill="none" stroke="#000000" stroke-opacity="1" stroke-width="1" stroke-linecap="square" stroke-linejoin="bevel" transform="matrix(1.00313,0,0,1.00313,492.534,454.416)"
font-family="Noto Sans" font-size="9" font-weight="400" font-style="normal" 
>
</g>

<g fill="none" stroke="#000000" stroke-opacity="1" stroke-width="1" stroke-linecap="square" stroke-linejoin="bevel" transform="matrix(1.00313,0,0,1.00313,492.534,454.416)"
font-family="Noto Sans" font-size="9" font-weight="400" font-style="normal" 
>
</g>

<g fill="none" stroke="#000000" stroke-opacity="1" stroke-width="1" stroke-linecap="square" stroke-linejoin="bevel" transform="matrix(1.00313,0,0,1.00313,492.534,454.416)"
font-family="Noto Sans" font-size="9" font-weight="400" font-style="normal" 
>
</g>

<g fill="none" stroke="#000000" stroke-opacity="1" stroke-width="1" stroke-linecap="square" stroke-linejoin="bevel" transform="matrix(1.00313,0,0,1.00313,492.534,454.416)"
font-family="Sans" font-size="9" font-weight="400" font-style="normal" 
>
<text fill="#000000" fill-opacity="1" stroke="none" xml:space="preserve" x="0" y="0" font-family="Sans" font-size="9" font-weight="400" font-style="normal" 
 >150.0</text>
</g>

<g fill="none" stroke="#000000" stroke-opacity="1" stroke-width="1" stroke-linecap="square" stroke-linejoin="bevel" transform="matrix(1.00313,0,0,1.00313,492.534,454.416)"
font-family="Noto Sans" font-size="9" font-weight="400" font-style="normal" 
>
</g>

<g fill="none" stroke="#000000" stroke-opacity="1" stroke-width="1" stroke-linecap="square" stroke-linejoin="bevel" transform="matrix(1.00313,0,0,1.00313,0,0)"
font-family="Noto Sans" font-size="9" font-weight="400" font-style="normal" 
>
</g>

<g fill="none" stroke="#a0a0a4" stroke-opacity="1" stroke-dasharray="0.5,1" stroke-dashoffset="0" stroke-width="0.5" stroke-linecap="butt" stroke-linejoin="miter" stroke-miterlimit="2" transform="matrix(1.00313,0,0,1.00313,0,0)"
font-family="Noto Sans" font-size="9" font-weight="400" font-style="normal" 
>
<polyline fill="none" vector-effect="none" points="615.5,435.5 615.5,42.5 " />
</g>

<g fill="none" stroke="#000000" stroke-opacity="1" stroke-width="1" stroke-linecap="butt" stroke-linejoin="miter" stroke-miterlimit="2" transform="matrix(1.00313,0,0,1.00313,0,0)"
font-family="Noto Sans" font-size="9" font-weight="400" font-style="normal" 
>
<polyline fill="none" vector-effect="none" points="615.5,435.5 615.5,429.5 " />
<polyline fill="none" vector-effect="none" points="615.5,42.5 615.5,47.5 " />
</g>

<g fill="none" stroke="#000000" stroke-opacity="1" stroke-width="1" stroke-linecap="square" stroke-linejoin="bevel" transform="matrix(1.00313,0,0,1.00313,0,0)"
font-family="Noto Sans" font-size="9" font-weight="400" font-style="normal" 
>
</g>

<g fill="none" stroke="#000000" stroke-opacity="1" stroke-width="1" stroke-linecap="square" stroke-linejoin="bevel" transform="matrix(1.00313,0,0,1.00313,599.869,454.416)"
font-family="Noto Sans" font-size="9" font-weight="400" font-style="normal" 
>
</g>

<g fill="none" stroke="#000000" stroke-opacity="1" stroke-width="1" stroke-linecap="square" stroke-linejoin="bevel" transform="matrix(1.00313,0,0,1.00313,599.869,454.416)"
font-family="Noto Sans" font-size="9" font-weight="400" font-style="normal" 
>
</g>

<g fill="none" stroke="#000000" stroke-opacity="1" stroke-width="1" stroke-linecap="square" stroke-linejoin="bevel" transform="matrix(1.00313,0,0,1.00313,599.869,454.416)"
font-family="Noto Sans" font-size="9" font-weight="400" font-style="normal" 
>
</g>

<g fill="none" stroke="#000000" stroke-opacity="1" stroke-width="1" stroke-linecap="square" stroke-linejoin="bevel" transform="matrix(1.00313,0,0,1.00313,599.869,454.416)"
font-family="Noto Sans" font-size="9" font-weight="400" font-style="normal" 
>
</g>

<g fill="none" stroke="#000000" stroke-opacity="1" stroke-width="1" stroke-linecap="square" stroke-linejoin="bevel" transform="matrix(1.00313,0,0,1.00313,599.869,454.416)"
font-family="Noto Sans" font-size="9" font-weight="400" font-style="normal" 
>
</g>

<g fill="none" stroke="#000000" stroke-opacity="1" stroke-width="1" stroke-linecap="square" stroke-linejoin="bevel" transform="matrix(1.00313,0,0,1.00313,599.869,454.416)"
font-family="Sans" font-size="9" font-weight="400" font-style="normal" 
>
<text fill="#000000" fill-opacity="1" stroke="none" xml:space="preserve" x="0" y="0" font-family="Sans" font-size="9" font-weight="400" font-style="normal" 
 >160.0</text>
</g>

<g fill="none" stroke="#000000" stroke-opacity="1" stroke-width="1" stroke-linecap="square" stroke-linejoin="bevel" transform="matrix(1.00313,0,0,1.00313,599.869,454.416)"
font-family="Noto Sans" font-size="9" font-weight="400" font-style="normal" 
>
</g>

<g fill="none" stroke="#000000" stroke-opacity="1" stroke-width="1" stroke-linecap="square" stroke-linejoin="bevel" transform="matrix(1.00313,0,0,1.00313,0,0)"
font-family="Noto Sans" font-size="9" font-weight="400" font-style="normal" 
>
</g>

<g fill="none" stroke="#000000" stroke-opacity="1" stroke-width="1" stroke-linecap="butt" stroke-linejoin="miter" stroke-miterlimit="2" transform="matrix(1.00313,0,0,1.00313,0,0)"
font-family="Noto Sans" font-size="9" font-weight="400" font-style="normal" 
>
<polyline fill="none" vector-effect="none" points="82.5,42.5 82.5,435.5 615.5,435.5 615.5,42.5 82.5,42.5 " />
</g>

<g fill="none" stroke="#000000" stroke-opacity="1" stroke-width="1" stroke-linecap="square" stroke-linejoin="bevel" transform="matrix(1.00313,0,0,1.00313,0,0)"
font-family="Noto Sans" font-size="9" font-weight="400" font-style="normal" 
>
</g>

<g fill="none" stroke="#000000" stroke-opacity="1" stroke-width="1" stroke-linecap="square" stroke-linejoin="bevel" transform="matrix(0,-1.00313,1.00313,0,15.0469,257.803)"
font-family="Noto Sans" font-size="9" font-weight="400" font-style="normal" 
>
</g>

<g fill="none" stroke="#000000" stroke-opacity="1" stroke-width="1" stroke-linecap="square" stroke-linejoin="bevel" transform="matrix(0,-1.00313,1.00313,0,15.0469,257.803)"
font-family="Noto Sans" font-size="9" font-weight="400" font-style="normal" 
>
</g>

<g fill="none" stroke="#000000" stroke-opacity="1" stroke-width="1" stroke-linecap="square" stroke-linejoin="bevel" transform="matrix(0,-1.00313,1.00313,0,15.0469,257.803)"
font-family="Noto Sans" font-size="9" font-weight="400" font-style="normal" 
>
</g>

<g fill="none" stroke="#000000" stroke-opacity="1" stroke-width="1" stroke-linecap="square" stroke-linejoin="bevel" transform="matrix(0,-1.00313,1.00313,0,15.0469,257.803)"
font-family="Noto Sans" font-size="9" font-weight="400" font-style="normal" 
>
</g>

<g fill="none" stroke="#000000" stroke-opacity="1" stroke-width="1" stroke-linecap="square" stroke-linejoin="bevel" transform="matrix(0,-1.00313,1.00313,0,15.0469,257.803)"
font-family="Noto Sans" font-size="9" font-weight="400" font-style="normal" 
>
</g>

<g fill="none" stroke="#000000" stroke-opacity="1" stroke-width="1" stroke-linecap="square" stroke-linejoin="bevel" transform="matrix(0,-1.00313,1.00313,0,15.0469,257.803)"
font-family="Sans" font-size="9" font-weight="400" font-style="normal" 
>
<text fill="#000000" fill-opacity="1" stroke="none" xml:space="preserve" x="0" y="0" font-family="Sans" font-size="9" font-weight="400" font-style="normal" 
 >Custo</text>
</g>

<g fill="none" stroke="#000000" stroke-opacity="1" stroke-width="1" stroke-linecap="square" stroke-linejoin="bevel" transform="matrix(0,-1.00313,1.00313,0,15.0469,257.803)"
font-family="Noto Sans" font-size="9" font-weight="400" font-style="normal" 
>
</g>

<g fill="none" stroke="#000000" stroke-opacity="1" stroke-width="1" stroke-linecap="square" stroke-linejoin="bevel" transform="matrix(1.00313,0,0,1.00313,309.966,475.481)"
font-family="Noto Sans" font-size="9" font-weight="400" font-style="normal" 
>
</g>

<g fill="none" stroke="#000000" stroke-opacity="1" stroke-width="1" stroke-linecap="square" stroke-linejoin="bevel" transform="matrix(1.00313,0,0,1.00313,309.966,475.481)"
font-family="Noto Sans" font-size="9" font-weight="400" font-style="normal" 
>
</g>

<g fill="none" stroke="#000000" stroke-opacity="1" stroke-width="1" stroke-linecap="square" stroke-linejoin="bevel" transform="matrix(1.00313,0,0,1.00313,309.966,475.481)"
font-family="Noto Sans" font-size="9" font-weight="400" font-style="normal" 
>
</g>

<g fill="none" stroke="#000000" stroke-opacity="1" stroke-width="1" stroke-linecap="square" stroke-linejoin="bevel" transform="matrix(1.00313,0,0,1.00313,309.966,475.481)"
font-family="Noto Sans" font-size="9" font-weight="400" font-style="normal" 
>
</g>

<g fill="none" stroke="#000000" stroke-opacity="1" stroke-width="1" stroke-linecap="square" stroke-linejoin="bevel" transform="matrix(1.00313,0,0,1.00313,309.966,475.481)"
font-family="Noto Sans" font-size="9" font-weight="400" font-style="normal" 
>
</g>

<g fill="none" stroke="#000000" stroke-opacity="1" stroke-width="1" stroke-linecap="square" stroke-linejoin="bevel" transform="matrix(1.00313,0,0,1.00313,309.966,475.481)"
font-family="Sans" font-size="9" font-weight="400" font-style="normal" 
>
<text fill="#000000" fill-opacity="1" stroke="none" xml:space="preserve" x="0" y="0" font-family="Sans" font-size="9" font-weight="400" font-style="normal" 
 >Temperatura</text>
</g>

<g fill="none" stroke="#000000" stroke-opacity="1" stroke-width="1" stroke-linecap="square" stroke-linejoin="bevel" transform="matrix(1.00313,0,0,1.00313,309.966,475.481)"
font-family="Noto Sans" font-size="9" font-weight="400" font-style="normal" 
>
</g>

<g fill="none" stroke="#000000" stroke-opacity="1" stroke-width="1" stroke-linecap="square" stroke-linejoin="bevel" transform="matrix(1.00313,0,0,1.00313,284.887,25.0781)"
font-family="Noto Sans" font-size="9" font-weight="400" font-style="normal" 
>
</g>

<g fill="none" stroke="#000000" stroke-opacity="1" stroke-width="1" stroke-linecap="square" stroke-linejoin="bevel" transform="matrix(1.00313,0,0,1.00313,284.887,25.0781)"
font-family="Noto Sans" font-size="9" font-weight="400" font-style="normal" 
>
</g>

<g fill="none" stroke="#000000" stroke-opacity="1" stroke-width="1" stroke-linecap="square" stroke-linejoin="bevel" transform="matrix(1.00313,0,0,1.00313,284.887,25.0781)"
font-family="Noto Sans" font-size="9" font-weight="400" font-style="normal" 
>
</g>

<g fill="none" stroke="#000000" stroke-opacity="1" stroke-width="1" stroke-linecap="square" stroke-linejoin="bevel" transform="matrix(1.00313,0,0,1.00313,284.887,25.0781)"
font-family="Noto Sans" font-size="9" font-weight="400" font-style="normal" 
>
</g>

<g fill="none" stroke="#000000" stroke-opacity="1" stroke-width="1" stroke-linecap="square" stroke-linejoin="bevel" transform="matrix(1.00313,0,0,1.00313,284.887,25.0781)"
font-family="Noto Sans" font-size="9" font-weight="400" font-style="normal" 
>
</g>

<g fill="none" stroke="#000000" stroke-opacity="1" stroke-width="1" stroke-linecap="square" stroke-linejoin="bevel" transform="matrix(1.00313,0,0,1.00313,284.887,25.0781)"
font-family="Sans" font-size="9" font-weight="400" font-style="normal" 
>
<text fill="#000000" fill-opacity="1" stroke="none" xml:space="preserve" x="0" y="0" font-family="Sans" font-size="9" font-weight="400" font-style="normal" 
 >Temperatura x Custo</text>
</g>

<g fill="none" stroke="#000000" stroke-opacity="1" stroke-width="1" stroke-linecap="square" stroke-linejoin="bevel" transform="matrix(1.00313,0,0,1.00313,284.887,25.0781)"
font-family="Noto Sans" font-size="9" font-weight="400" font-style="normal" 
>
</g>

<g fill="none" stroke="#000000" stroke-opacity="1" stroke-width="1" stroke-linecap="square" stroke-linejoin="bevel" transform="matrix(1.00313,0,0,1.00313,134.419,59.1844)"
font-family="Noto Sans" font-size="9" font-weight="400" font-style="normal" 
>
</g>

<g fill="none" stroke="#000000" stroke-opacity="1" stroke-width="1" stroke-linecap="square" stroke-linejoin="bevel" transform="matrix(1.00313,0,0,1.00313,134.419,59.1844)"
font-family="Noto Sans" font-size="9" font-weight="400" font-style="normal" 
>
</g>

<g fill="none" stroke="#000000" stroke-opacity="1" stroke-width="1" stroke-linecap="square" stroke-linejoin="bevel" transform="matrix(1.00313,0,0,1.00313,134.419,59.1844)"
font-family="Noto Sans" font-size="9" font-weight="400" font-style="normal" 
>
</g>

<g fill="none" stroke="#000000" stroke-opacity="1" stroke-width="1" stroke-linecap="square" stroke-linejoin="bevel" transform="matrix(1.00313,0,0,1.00313,134.419,59.1844)"
font-family="Noto Sans" font-size="9" font-weight="400" font-style="normal" 
>
</g>

<g fill="none" stroke="#000000" stroke-opacity="1" stroke-width="1" stroke-linecap="square" stroke-linejoin="bevel" transform="matrix(1.00313,0,0,1.00313,134.419,59.1844)"
font-family="Noto Sans" font-size="9" font-weight="400" font-style="normal" 
>
</g>

<g fill="none" stroke="#000000" stroke-opacity="1" stroke-width="1" stroke-linecap="square" stroke-linejoin="bevel" transform="matrix(1.00313,0,0,1.00313,134.419,59.1844)"
font-family="Sans" font-size="9" font-weight="400" font-style="normal" 
>
<text fill="#000000" fill-opacity="1" stroke="none" xml:space="preserve" x="0" y="0" font-family="Sans" font-size="9" font-weight="400" font-style="normal" 
 >Soluo final 2</text>
</g>

<g fill="none" stroke="#000000" stroke-opacity="1" stroke-width="1" stroke-linecap="square" stroke-linejoin="bevel" transform="matrix(1.00313,0,0,1.00313,134.419,59.1844)"
font-family="Noto Sans" font-size="9" font-weight="400" font-style="normal" 
>
</g>

<g fill="none" stroke="#000000" stroke-opacity="1" stroke-width="1" stroke-linecap="square" stroke-linejoin="bevel" transform="matrix(1.00313,0,0,1.00313,0,0)"
font-family="Noto Sans" font-size="9" font-weight="400" font-style="normal" 
>
</g>

<g fill="none" stroke="#0000ff" stroke-opacity="1" stroke-width="2" stroke-linecap="butt" stroke-linejoin="miter" stroke-miterlimit="2" transform="matrix(1.00313,0,0,1.00313,0,0)"
font-family="Noto Sans" font-size="9" font-weight="400" font-style="normal" 
>
<path vector-effect="none" fill-rule="evenodd" d="M234.5,54.5 L271.5,54.5"/>
</g>

<g fill="none" stroke="#000000" stroke-opacity="1" stroke-width="1" stroke-linecap="square" stroke-linejoin="bevel" transform="matrix(1.00313,0,0,1.00313,0,0)"
font-family="Noto Sans" font-size="9" font-weight="400" font-style="normal" 
>
</g>

<g fill="none" stroke="#000000" stroke-opacity="1" stroke-width="1" stroke-linecap="square" stroke-linejoin="bevel" transform="matrix(1.00313,0,0,1.00313,0,0)"
font-family="Noto Sans" font-size="9" font-weight="400" font-style="normal" 
>
</g>

<g fill="none" stroke="#000000" stroke-opacity="1" stroke-width="1" stroke-linecap="square" stroke-linejoin="bevel" transform="matrix(1.00313,0,0,1.00313,0,0)"
font-family="Noto Sans" font-size="9" font-weight="400" font-style="normal" 
>
</g>

<g fill="none" stroke="#000000" stroke-opacity="1" stroke-width="1" stroke-linecap="square" stroke-linejoin="bevel" transform="matrix(1.00313,0,0,1.00313,0,0)"
font-family="Noto Sans" font-size="9" font-weight="400" font-style="normal" 
>
</g>

<g fill="none" stroke="#0000ff" stroke-opacity="1" stroke-width="2" stroke-linecap="butt" stroke-linejoin="miter" stroke-miterlimit="2" transform="matrix(1.00313,0,0,1.00313,0,0)"
font-family="Noto Sans" font-size="9" font-weight="400" font-style="normal" 
>
<polyline fill="none" vector-effect="none" points="509.1,118.3 509.1,118.3 509.1,118.3 509.1,118.3 509.1,166.9 509.1,166.9 509.1,166.9 509.1,166.9 509.1,166.9 509.1,166.9 509.1,166.9 509.1,166.9 509.1,166.9 509.1,166.9 509.1,166.9 509.1,166.9 509.1,166.9 509.1,166.9 509.1,207 509.1,207 509.1,207 509.1,207 509.1,207 509.1,207 509.1,207 509.1,207 509.1,207 509.1,207 509.1,207 509.1,207 509.1,207 509.1,207 509.1,207 509.1,207 509.1,207 509.1,207 509.1,207 509.1,247.1 509.1,247.1 509.1,247.1 509.1,247.1 509.1,271.3 509.1,271.3 509.1,271.3 509.1,271.3 509.1,271.3 509.1,271.3 509.1,271.3 509.1,271.3 509.1,271.3 509.1,271.3 509.1,271.3 509.1,271.3 509.1,271.3 509.1,271.3 509.1,271.3 509.1,271.3 509.1,271.3 509.1,271.3 509.1,271.3 509.1,271.3 509.1,271.3 509.1,271.3 509.1,271.3 509.1,271.3 509.1,271.3 509.1,271.3 509.1,271.3 509.1,271.3 509.1,271.3 509.1,271.3 509.1,271.3 509.1,271.3 509.1,271.3 509.1,271.3 509.1,271.3 509.1,271.3 509.1,271.3 509.1,271.3 509.1,271.3 509.1,271.3 509.1,271.3 509.1,271.3 509.1,271.3 509.1,271.3 509.1,271.3 509.1,271.3 509.1,271.3 509.1,271.3 509.1,271.3 509.1,271.3 509.1,271.3 509.1,271.3 509.1,271.3 509.1,271.3 509.1,271.3 509.1,271.3 509.1,271.3 509.1,271.3 509.1,271.3 509.1,271.3 493.1,271.3 493.1,271.3 493.1,271.3 493.1,271.3 493.1,271.3 493.1,271.3 493.1,271.3 493.1,271.3 493.1,271.3 493.1,271.3 493.1,271.3 493.1,271.3 493.1,271.3 493.1,271.3 493.1,271.3 493.1,271.3 493.1,271.3 493.1,271.3 493.1,271.3 493.1,271.3 493.1,271.3 493.1,271.3 493.1,271.3 493.1,271.3 493.1,271.3 493.1,271.3 493.1,271.3 493.1,271.3 493.1,271.3 493.1,271.3 493.1,271.3 493.1,271.3 493.1,271.3 493.1,271.3 493.1,271.3 493.1,271.3 493.1,271.3 493.1,271.3 493.1,271.3 493.1,271.3 493.1,291.8 493.1,291.8 493.1,291.8 493.1,291.8 493.1,291.8 493.1,291.8 493.1,291.8 493.1,291.8 493.1,291.8 493.1,291.8 493.1,291.8 493.1,291.8 493.1,291.8 493.1,291.8 493.1,303.4 493.1,303.4 493.1,303.4 493.1,303.4 493.1,303.4 493.1,303.4 493.1,303.4 493.1,303.4 493.1,303.4 493.1,303.4 493.1,303.4 493.1,303.4 493.1,303.4 493.1,303.4 493.1,303.4 493.1,303.4 493.1,303.4 493.1,303.4 493.1,303.4 493.1,303.4 493.1,303.4 493.1,303.4 493.1,303.4 493.1,303.4 493.1,303.4 493.1,303.4 493.1,303.4 493.1,303.4 493.1,303.4 493.1,303.4 493.1,303.4 493.1,303.4 493.1,303.4 493.1,303.4 493.1,303.4 493.1,303.4 493.1,303.4 493.1,303.4 493.1,303.4 493.1,303.4 493.1,303.4 493.1,309.7 493.1,309.7 493.1,309.7 493.1,309.7 493.1,342.4 477.2,342.4 477.2,342.4 477.2,342.4 477.2,342.4 477.2,342.4 477.2,342.4 477.2,342.4 477.2,342.4 477.2,342.4 477.2,342.4 477.2,342.4 477.2,342.4 477.2,342.4 477.2,342.4 477.2,349.4 477.2,349.4 477.2,349.4 477.2,349.4 477.2,349.4 477.2,349.4 477.2,349.4 477.2,349.4 477.2,349.4 477.2,349.4 477.2,349.4 477.2,349.4 477.2,349.4 477.2,349.4 477.2,349.4 477.2,349.4 477.2,349.4 477.2,352.4 477.2,352.4 477.2,352.4 477.2,352.4 477.2,352.4 477.2,352.4 477.2,352.4 477.2,352.4 477.2,352.4 477.2,352.4 477.2,352.4 477.2,352.4 477.2,352.4 477.2,352.4 477.2,352.4 477.2,352.4 477.2,352.4 477.2,352.4 477.2,352.4 477.2,352.4 477.2,352.4 477.2,352.4 477.2,352.4 477.2,352.4 477.2,352.4 477.2,352.4 477.2,352.4 477.2,352.4 477.2,352.4 477.2,352.4 477.2,352.4 477.2,352.4 477.2,352.4 477.2,352.4 477.2,352.4 477.2,352.4 477.2,352.4 477.2,352.4 477.2,352.4 477.2,352.4 477.2,352.4 477.2,352.4 477.2,352.4 477.2,352.4 477.2,352.4 477.2,352.4 477.2,352.4 477.2,352.4 477.2,352.4 477.2,352.4 477.2,352.4 477.2,352.4 477.2,352.4 477.2,352.4 477.2,352.4 477.2,352.4 477.2,352.4 477.2,352.4 477.2,352.4 477.2,352.4 477.2,352.4 477.2,352.4 477.2,352.4 477.2,352.4 477.2,352.4 477.2,352.4 477.2,352.4 477.2,352.4 477.2,352.4 461.5,352.4 461.5,352.4 461.5,352.4 461.5,352.4 461.5,352.4 461.5,352.4 461.5,352.4 461.5,352.4 461.5,352.4 461.5,352.4 461.5,352.4 461.5,352.4 461.5,352.4 461.5,352.4 461.5,352.4 461.5,352.4 461.5,352.4 461.5,352.4 461.5,352.4 461.5,352.4 461.5,352.4 461.5,352.4 461.5,352.4 461.5,352.4 461.5,352.4 461.5,352.4 461.5,352.4 461.5,352.4 461.5,352.4 461.5,352.4 461.5,352.4 461.5,352.4 461.5,352.4 461.5,352.4 461.5,352.4 461.5,352.4 461.5,352.4 461.5,352.4 461.5,352.4 461.5,352.4 461.5,352.4 461.5,352.4 461.5,352.4 461.5,352.4 461.5,352.4 461.5,352.4 461.5,352.4 461.5,352.4 461.5,352.4 461.5,352.4 461.5,352.4 461.5,352.4 461.5,352.4 461.5,352.4 461.5,352.4 461.5,352.4 461.5,352.4 461.5,352.4 461.5,352.4 461.5,352.4 461.5,352.4 461.5,352.4 461.5,352.4 461.5,352.4 461.5,352.4 461.5,352.4 461.5,352.4 461.5,352.4 461.5,352.4 461.5,352.4 461.5,352.4 461.5,352.4 461.5,352.4 461.5,352.4 461.5,352.4 461.5,352.4 461.5,352.4 461.5,352.4 461.5,352.4 461.5,352.4 461.5,352.4 461.5,352.4 461.5,352.4 461.5,352.4 461.5,352.4 461.5,352.4 461.5,352.4 461.5,352.4 461.5,352.4 461.5,352.4 461.5,352.4 461.5,352.4 461.5,352.4 461.5,352.4 461.5,352.4 461.5,352.4 461.5,352.4 461.5,352.4 461.5,352.4 461.5,352.4 446,352.4 446,352.4 446,352.4 446,352.4 446,352.4 446,352.4 446,352.4 446,352.4 446,352.4 446,352.4 446,352.4 446,352.4 446,352.4 446,352.4 446,352.4 446,352.4 446,352.4 446,352.4 446,352.4 446,352.4 446,352.4 446,352.4 446,352.4 446,352.4 446,352.4 446,352.4 446,352.4 446,352.4 446,352.4 446,352.4 446,352.4 446,352.4 446,352.4 446,352.4 446,352.4 446,352.4 446,352.4 446,352.4 446,352.4 446,352.4 446,352.4 446,352.4 446,352.4 446,352.4 446,352.4 446,352.4 446,352.4 446,352.4 446,352.4 446,352.4 446,352.4 446,352.4 446,352.4 446,352.4 446,352.4 446,352.4 446,352.4 446,352.4 446,352.4 446,352.4 446,352.4 446,352.4 446,352.4 446,352.4 446,352.4 446,352.4 446,352.4 446,352.4 446,352.4 446,352.4 446,352.4 446,352.4 446,352.4 446,352.4 446,352.4 446,352.4 446,352.4 446,352.4 446,352.4 446,352.4 446,352.4 446,352.4 446,352.4 446,352.4 446,352.4 446,352.4 446,352.4 446,352.4 446,352.4 446,352.4 446,352.4 446,352.4 446,352.4 446,352.4 446,352.4 446,352.4 446,352.4 446,352.4 446,352.4 446,352.4 430.6,352.4 430.6,352.4 430.6,352.4 430.6,352.4 430.6,352.4 430.6,352.4 430.6,352.4 430.6,352.4 430.6,352.4 430.6,352.4 430.6,352.4 430.6,352.4 430.6,352.4 430.6,352.4 430.6,352.4 430.6,352.4 430.6,352.4 430.6,352.4 430.6,352.4 430.6,352.4 430.6,352.4 430.6,352.4 430.6,352.4 430.6,352.4 430.6,352.4 430.6,352.4 430.6,352.4 430.6,352.4 430.6,352.4 430.6,352.4 430.6,352.4 430.6,352.4 430.6,352.4 430.6,352.4 430.6,352.4 430.6,352.4 430.6,352.4 430.6,352.4 430.6,352.4 430.6,352.4 430.6,352.4 430.6,352.4 430.6,352.4 430.6,352.4 430.6,352.4 430.6,352.4 430.6,352.4 430.6,352.4 430.6,352.4 430.6,352.4 430.6,352.4 430.6,352.4 430.6,352.4 430.6,352.4 430.6,352.4 430.6,352.4 430.6,352.4 430.6,352.4 430.6,352.4 430.6,352.4 430.6,352.4 430.6,352.4 430.6,352.4 430.6,352.4 430.6,352.4 430.6,352.4 430.6,352.4 430.6,352.4 430.6,352.4 430.6,352.4 430.6,352.4 430.6,352.4 430.6,352.4 430.6,352.4 430.6,352.4 430.6,352.4 430.6,352.4 430.6,352.4 430.6,352.4 430.6,352.4 430.6,352.4 430.6,352.4 430.6,352.4 430.6,352.4 430.6,352.4 430.6,352.4 430.6,352.4 430.6,352.4 430.6,352.4 430.6,352.4 430.6,352.4 430.6,352.4 430.6,352.4 430.6,352.4 430.6,352.4 430.6,352.4 430.6,352.4 430.6,352.4 430.6,352.4 430.6,352.4 415.4,352.4 415.4,352.4 415.4,352.4 415.4,352.4 415.4,352.4 415.4,352.4 415.4,352.4 415.4,352.4 415.4,352.4 415.4,352.4 415.4,352.4 415.4,352.4 415.4,352.4 415.4,352.4 415.4,352.4 415.4,352.4 415.4,352.4 415.4,352.4 415.4,352.4 415.4,352.4 415.4,352.4 415.4,352.4 415.4,352.4 415.4,352.4 415.4,352.4 415.4,352.4 415.4,352.4 415.4,352.4 415.4,352.4 415.4,352.4 415.4,352.4 415.4,352.4 415.4,352.4 415.4,352.4 415.4,352.4 415.4,352.4 415.4,352.4 415.4,352.4 415.4,352.4 415.4,352.4 415.4,352.4 415.4,352.4 415.4,352.4 415.4,352.4 415.4,352.4 415.4,352.4 415.4,352.4 415.4,352.4 415.4,352.4 415.4,352.4 415.4,352.4 415.4,352.4 415.4,352.4 415.4,352.4 415.4,352.4 415.4,352.4 415.4,352.4 415.4,352.4 415.4,352.4 415.4,352.4 415.4,352.4 415.4,352.4 415.4,352.4 415.4,352.4 415.4,352.4 415.4,352.4 415.4,352.4 415.4,352.4 415.4,352.4 415.4,352.4 415.4,352.4 415.4,352.4 415.4,352.4 415.4,352.4 415.4,352.4 415.4,352.4 415.4,352.4 415.4,352.4 415.4,352.4 415.4,352.4 415.4,352.4 415.4,352.4 415.4,352.4 415.4,352.4 415.4,352.4 415.4,352.4 415.4,352.4 415.4,352.4 415.4,352.4 415.4,352.4 415.4,352.4 415.4,352.4 415.4,352.4 415.4,352.4 415.4,352.4 415.4,352.4 415.4,352.4 415.4,352.4 415.4,352.4 415.4,352.4 400.3,352.4 400.3,352.4 400.3,352.4 400.3,352.4 400.3,352.4 400.3,352.4 400.3,352.4 400.3,352.4 400.3,352.4 400.3,352.4 400.3,352.4 400.3,352.4 400.3,352.4 400.3,352.4 400.3,352.4 400.3,352.4 400.3,352.4 400.3,352.4 400.3,352.4 400.3,352.4 400.3,352.4 400.3,352.4 400.3,352.4 400.3,352.4 400.3,352.4 400.3,352.4 400.3,352.4 400.3,352.4 400.3,352.4 400.3,352.4 400.3,352.4 400.3,352.4 400.3,352.4 400.3,352.4 400.3,352.4 400.3,352.4 400.3,352.4 400.3,352.4 400.3,352.4 400.3,352.4 400.3,352.4 400.3,352.4 400.3,352.4 400.3,352.4 400.3,352.4 400.3,352.4 400.3,352.4 400.3,352.4 400.3,352.4 400.3,352.4 400.3,352.4 400.3,352.4 400.3,352.4 400.3,352.4 400.3,352.4 400.3,352.4 400.3,352.4 400.3,352.4 400.3,352.4 400.3,352.4 400.3,352.4 400.3,352.4 400.3,352.4 400.3,352.4 400.3,352.4 400.3,352.4 400.3,352.4 400.3,352.4 400.3,352.4 400.3,352.4 400.3,352.4 400.3,352.4 400.3,352.4 400.3,352.4 400.3,352.4 400.3,352.4 400.3,352.4 400.3,352.4 400.3,352.4 400.3,352.4 400.3,352.4 400.3,352.4 400.3,352.4 400.3,352.4 400.3,352.4 400.3,352.4 400.3,352.4 400.3,352.4 400.3,352.4 400.3,352.4 400.3,352.4 400.3,352.4 400.3,352.4 400.3,352.4 400.3,352.4 400.3,352.4 400.3,352.4 400.3,352.4 400.3,352.4 400.3,352.4 385.4,352.4 385.4,352.4 385.4,352.4 385.4,352.4 385.4,352.4 385.4,352.4 385.4,352.4 385.4,352.4 385.4,352.4 385.4,352.4 385.4,352.4 385.4,352.4 385.4,352.4 385.4,352.4 385.4,352.4 385.4,352.4 385.4,352.4 385.4,352.4 385.4,352.4 385.4,352.4 385.4,352.4 385.4,352.4 385.4,352.4 385.4,352.4 385.4,352.4 385.4,352.4 385.4,352.4 385.4,352.4 385.4,352.4 385.4,352.4 385.4,352.4 385.4,352.4 385.4,352.4 385.4,352.4 385.4,352.4 385.4,352.4 385.4,352.4 385.4,352.4 385.4,352.4 385.4,352.4 385.4,352.4 385.4,352.4 385.4,352.4 385.4,352.4 385.4,352.4 385.4,352.4 385.4,352.4 385.4,352.4 385.4,352.4 385.4,352.4 385.4,352.4 385.4,352.4 385.4,352.4 385.4,352.4 385.4,352.4 385.4,352.4 385.4,352.4 385.4,352.4 385.4,352.4 385.4,352.4 385.4,352.4 385.4,352.4 385.4,352.4 385.4,352.4 385.4,352.4 385.4,352.4 385.4,352.4 385.4,352.4 385.4,352.4 385.4,352.4 385.4,352.4 385.4,352.4 385.4,352.4 385.4,352.4 385.4,352.4 385.4,352.4 385.4,352.4 385.4,352.4 385.4,352.4 385.4,352.4 385.4,352.4 385.4,352.4 385.4,352.4 385.4,352.4 385.4,352.4 385.4,352.4 385.4,352.4 385.4,352.4 385.4,352.4 385.4,352.4 385.4,352.4 385.4,352.4 385.4,352.4 385.4,352.4 385.4,352.4 385.4,352.4 385.4,352.4 385.4,352.4 385.4,352.4 385.4,352.4 370.6,352.4 370.6,352.4 370.6,352.4 370.6,352.4 370.6,352.4 370.6,352.4 370.6,352.4 370.6,352.4 370.6,352.4 370.6,352.4 370.6,352.4 370.6,352.4 370.6,352.4 370.6,352.4 370.6,352.4 370.6,352.4 370.6,352.4 370.6,352.4 370.6,352.4 370.6,352.4 370.6,352.4 370.6,352.4 370.6,352.4 370.6,352.4 370.6,352.4 370.6,352.4 370.6,352.4 370.6,352.4 370.6,352.4 370.6,352.4 370.6,352.4 370.6,352.4 370.6,352.4 370.6,352.4 370.6,352.4 370.6,352.4 370.6,352.4 370.6,352.4 370.6,352.4 370.6,352.4 370.6,352.4 370.6,352.4 370.6,352.4 370.6,352.4 370.6,352.4 370.6,352.4 370.6,352.4 370.6,352.4 370.6,352.4 370.6,352.4 370.6,352.4 370.6,352.4 370.6,352.4 370.6,352.4 370.6,352.4 370.6,352.4 370.6,352.4 370.6,352.4 370.6,352.4 370.6,352.4 370.6,352.4 370.6,352.4 370.6,352.4 370.6,352.4 370.6,352.4 370.6,352.4 370.6,352.4 370.6,352.4 370.6,352.4 370.6,352.4 370.6,352.4 370.6,352.4 370.6,352.4 370.6,352.4 370.6,352.4 370.6,352.4 370.6,352.4 370.6,352.4 370.6,352.4 370.6,352.4 370.6,352.4 370.6,352.4 370.6,352.4 370.6,352.4 370.6,352.4 370.6,352.4 370.6,352.4 370.6,352.4 370.6,352.4 370.6,352.4 370.6,352.4 370.6,352.4 370.6,352.4 370.6,352.4 370.6,352.4 370.6,352.4 370.6,352.4 370.6,352.4 370.6,352.4 370.6,352.4 356,386.2 356,386.2 356,386.2 356,386.2 356,386.2 356,386.2 356,386.2 356,386.2 356,386.2 356,386.2 356,386.2 356,386.2 356,386.2 356,386.2 356,386.2 356,386.2 356,386.2 356,386.2 356,386.2 356,386.2 356,386.2 356,386.2 356,386.2 356,386.2 356,386.2 356,386.2 356,386.2 356,386.2 356,386.2 356,386.2 356,386.2 356,386.2 356,386.2 356,386.2 356,386.2 356,386.2 356,386.2 356,386.2 356,386.2 356,386.2 356,386.2 356,386.2 356,386.2 356,386.2 356,386.2 356,386.2 356,386.2 356,386.2 356,386.2 356,386.2 356,386.2 356,386.2 356,386.2 356,386.2 356,386.2 356,386.2 356,386.2 356,386.2 356,386.2 356,386.2 356,386.2 356,386.2 356,386.2 356,386.2 356,386.2 356,386.2 356,386.2 356,386.2 356,386.2 356,386.2 356,386.2 356,386.2 356,386.2 356,386.2 356,386.2 356,386.2 356,386.2 356,386.2 356,386.2 356,386.2 356,386.2 356,386.2 356,386.2 356,386.2 356,386.2 356,386.2 356,386.2 356,386.2 356,386.2 356,386.2 356,386.2 356,386.2 356,386.2 356,386.2 356,386.2 356,386.2 356,386.2 356,386.2 356,386.2 356,386.2 341.5,386.2 341.5,386.2 341.5,386.2 341.5,386.2 341.5,386.2 341.5,386.2 341.5,386.2 341.5,386.2 341.5,386.2 341.5,386.2 341.5,386.2 341.5,386.2 341.5,386.2 341.5,386.2 341.5,386.2 341.5,386.2 341.5,386.2 341.5,386.2 341.5,386.2 341.5,386.2 341.5,386.2 341.5,386.2 341.5,386.2 341.5,386.2 341.5,386.2 341.5,386.2 341.5,386.2 341.5,386.2 341.5,386.2 341.5,386.2 341.5,386.2 341.5,386.2 341.5,386.2 341.5,386.2 341.5,386.2 341.5,386.2 341.5,386.2 341.5,386.2 341.5,386.2 341.5,386.2 341.5,386.2 341.5,386.2 341.5,386.2 341.5,386.2 341.5,386.2 341.5,386.2 341.5,386.2 341.5,386.2 341.5,386.2 341.5,386.2 341.5,386.2 341.5,386.2 341.5,386.2 341.5,386.2 341.5,386.2 341.5,386.2 341.5,386.2 341.5,386.2 341.5,386.2 341.5,386.2 341.5,386.2 341.5,386.2 341.5,386.2 341.5,386.2 341.5,386.2 341.5,386.2 341.5,386.2 341.5,386.2 341.5,386.2 341.5,386.2 341.5,386.2 341.5,386.2 341.5,386.2 341.5,386.2 341.5,386.2 341.5,386.2 341.5,386.2 341.5,386.2 341.5,386.2 341.5,386.2 341.5,386.2 341.5,386.2 341.5,386.2 341.5,386.2 341.5,386.2 341.5,386.2 341.5,386.2 341.5,386.2 341.5,386.2 341.5,386.2 341.5,386.2 341.5,386.2 341.5,386.2 341.5,386.2 341.5,386.2 341.5,386.2 341.5,386.2 341.5,386.2 341.5,386.2 341.5,386.2 327.1,386.2 327.1,386.2 327.1,386.2 327.1,386.2 327.1,386.2 327.1,386.2 327.1,386.2 327.1,386.2 327.1,386.2 327.1,386.2 327.1,386.2 327.1,386.2 327.1,386.2 327.1,386.2 327.1,386.2 327.1,386.2 327.1,386.2 327.1,386.2 327.1,386.2 327.1,386.2 327.1,386.2 327.1,386.2 327.1,386.2 327.1,386.2 327.1,386.2 327.1,386.2 327.1,386.2 327.1,386.2 327.1,386.2 327.1,386.2 327.1,386.2 327.1,386.2 327.1,386.2 327.1,386.2 327.1,386.2 327.1,386.2 327.1,386.2 327.1,386.2 327.1,386.2 327.1,386.2 327.1,386.2 327.1,386.2 327.1,386.2 327.1,386.2 327.1,386.2 327.1,386.2 327.1,386.2 327.1,386.2 327.1,386.2 327.1,386.2 327.1,386.2 327.1,386.2 327.1,386.2 327.1,386.2 327.1,386.2 327.1,386.2 327.1,386.2 327.1,386.2 327.1,386.2 327.1,386.2 327.1,386.2 327.1,386.2 327.1,386.2 327.1,386.2 327.1,386.2 327.1,386.2 327.1,386.2 327.1,386.2 327.1,386.2 327.1,386.2 327.1,386.2 327.1,386.2 327.1,386.2 327.1,386.2 327.1,386.2 327.1,386.2 327.1,386.2 327.1,386.2 327.1,386.2 327.1,386.2 327.1,386.2 327.1,386.2 327.1,386.2 327.1,386.2 327.1,386.2 327.1,386.2 327.1,386.2 327.1,386.2 327.1,386.2 327.1,386.2 327.1,386.2 327.1,386.2 327.1,386.2 327.1,386.2 327.1,386.2 327.1,386.2 327.1,386.2 327.1,386.2 327.1,386.2 327.1,386.2 312.9,386.2 312.9,386.2 312.9,386.2 312.9,386.2 312.9,386.2 312.9,386.2 312.9,386.2 312.9,386.2 312.9,386.2 312.9,386.2 312.9,386.2 312.9,386.2 312.9,386.2 312.9,386.2 312.9,386.2 312.9,386.2 312.9,386.2 312.9,386.2 312.9,386.2 312.9,386.2 312.9,386.2 312.9,386.2 312.9,386.2 312.9,386.2 312.9,386.2 312.9,386.2 312.9,386.2 312.9,386.2 312.9,386.2 312.9,386.2 312.9,386.2 312.9,386.2 312.9,386.2 312.9,386.2 312.9,386.2 312.9,386.2 312.9,386.2 312.9,386.2 312.9,386.2 312.9,386.2 312.9,386.2 312.9,386.2 312.9,386.2 312.9,386.2 312.9,386.2 312.9,386.2 312.9,386.2 312.9,386.2 312.9,386.2 312.9,386.2 312.9,386.2 312.9,386.2 312.9,386.2 312.9,386.2 312.9,386.2 312.9,386.2 312.9,386.2 312.9,386.2 312.9,386.2 312.9,386.2 312.9,386.2 312.9,386.2 312.9,386.2 312.9,386.2 312.9,386.2 312.9,386.2 312.9,386.2 312.9,386.2 312.9,386.2 312.9,386.2 312.9,386.2 312.9,386.2 312.9,386.2 312.9,386.2 312.9,386.2 312.9,386.2 312.9,386.2 312.9,386.2 312.9,386.2 312.9,386.2 312.9,386.2 312.9,386.2 312.9,386.2 312.9,386.2 312.9,386.2 312.9,386.2 312.9,386.2 312.9,386.2 312.9,386.2 312.9,386.2 312.9,386.2 312.9,386.2 312.9,386.2 312.9,386.2 312.9,386.2 312.9,386.2 312.9,386.2 312.9,386.2 312.9,386.2 312.9,386.2 298.9,386.2 298.9,386.2 298.9,386.2 298.9,386.2 298.9,386.2 298.9,386.2 298.9,386.2 298.9,386.2 298.9,386.2 298.9,386.2 298.9,386.2 298.9,386.2 298.9,386.2 298.9,386.2 298.9,386.2 298.9,386.2 298.9,386.2 298.9,386.2 298.9,386.2 298.9,386.2 298.9,386.2 298.9,386.2 298.9,386.2 298.9,386.2 298.9,386.2 298.9,386.2 298.9,386.2 298.9,386.2 298.9,386.2 298.9,386.2 298.9,386.2 298.9,386.2 298.9,386.2 298.9,386.2 298.9,386.2 298.9,386.2 298.9,386.2 298.9,386.2 298.9,386.2 298.9,386.2 298.9,386.2 298.9,386.2 298.9,386.2 298.9,386.2 298.9,386.2 298.9,386.2 298.9,386.2 298.9,386.2 298.9,386.2 298.9,386.2 298.9,386.2 298.9,386.2 298.9,386.2 298.9,386.2 298.9,386.2 298.9,386.2 298.9,386.2 298.9,386.2 298.9,386.2 298.9,386.2 298.9,386.2 298.9,386.2 298.9,386.2 298.9,386.2 298.9,386.2 298.9,386.2 298.9,386.2 298.9,386.2 298.9,386.2 298.9,386.2 298.9,386.2 298.9,386.2 298.9,386.2 298.9,386.2 298.9,386.2 298.9,386.2 298.9,386.2 298.9,386.2 298.9,386.2 298.9,386.2 298.9,386.2 298.9,386.2 298.9,386.2 298.9,386.2 298.9,386.2 298.9,386.2 298.9,386.2 298.9,386.2 298.9,386.2 298.9,386.2 298.9,386.2 298.9,386.2 298.9,386.2 298.9,386.2 298.9,386.2 298.9,386.2 298.9,386.2 298.9,386.2 298.9,386.2 298.9,386.2 285,386.2 285,386.2 285,386.2 285,386.2 285,386.2 285,386.2 285,386.2 285,386.2 285,386.2 285,386.2 285,386.2 285,386.2 285,386.2 285,386.2 285,386.2 285,386.2 285,386.2 285,386.2 285,386.2 285,386.2 285,386.2 285,386.2 285,386.2 285,386.2 285,386.2 285,386.2 285,386.2 285,386.2 285,386.2 285,386.2 285,386.2 285,386.2 285,386.2 285,386.2 285,386.2 285,386.2 285,386.2 285,386.2 285,386.2 285,386.2 285,386.2 285,386.2 285,386.2 285,386.2 285,386.2 285,386.2 285,386.2 285,386.2 285,386.2 285,386.2 285,386.2 285,386.2 285,386.2 285,386.2 285,386.2 285,386.2 285,386.2 285,386.2 285,386.2 285,386.2 285,386.2 285,386.2 285,386.2 285,386.2 285,386.2 285,386.2 285,386.2 285,386.2 285,386.2 285,386.2 285,386.2 285,386.2 285,386.2 285,386.2 285,386.2 285,386.2 285,386.2 285,386.2 285,386.2 285,386.2 285,386.2 285,386.2 285,386.2 285,386.2 285,386.2 285,386.2 285,386.2 285,386.2 285,386.2 285,386.2 285,386.2 285,386.2 285,386.2 285,386.2 285,386.2 285,386.2 285,386.2 285,386.2 285,386.2 285,386.2 271.2,386.2 271.2,386.2 271.2,386.2 271.2,386.2 271.2,386.2 271.2,386.2 271.2,386.2 271.2,386.2 271.2,386.2 271.2,386.2 271.2,386.2 271.2,386.2 271.2,386.2 271.2,386.2 271.2,386.2 271.2,386.2 271.2,386.2 271.2,386.2 271.2,386.2 271.2,386.2 271.2,386.2 271.2,386.2 271.2,386.2 271.2,386.2 271.2,386.2 271.2,386.2 271.2,386.2 271.2,386.2 271.2,386.2 271.2,386.2 271.2,386.2 271.2,386.2 271.2,386.2 271.2,386.2 271.2,386.2 271.2,386.2 271.2,386.2 271.2,386.2 271.2,386.2 271.2,386.2 271.2,386.2 271.2,386.2 271.2,386.2 271.2,386.2 271.2,386.2 271.2,386.2 271.2,386.2 271.2,386.2 271.2,386.2 271.2,386.2 271.2,386.2 271.2,386.2 271.2,386.2 271.2,386.2 271.2,386.2 271.2,386.2 271.2,386.2 271.2,386.2 271.2,386.2 271.2,386.2 271.2,386.2 271.2,386.2 271.2,386.2 271.2,386.2 271.2,386.2 271.2,386.2 271.2,386.2 271.2,386.2 271.2,386.2 271.2,386.2 271.2,386.2 271.2,386.2 271.2,386.2 271.2,386.2 271.2,386.2 271.2,386.2 271.2,386.2 271.2,386.2 271.2,386.2 271.2,386.2 271.2,386.2 271.2,386.2 271.2,386.2 271.2,386.2 271.2,386.2 271.2,386.2 271.2,386.2 271.2,386.2 271.2,386.2 271.2,386.2 271.2,386.2 271.2,386.2 271.2,386.2 271.2,386.2 271.2,386.2 271.2,386.2 271.2,386.2 271.2,386.2 271.2,386.2 271.2,386.2 257.6,386.2 257.6,386.2 257.6,386.2 257.6,386.2 257.6,386.2 257.6,386.2 257.6,386.2 257.6,386.2 257.6,386.2 257.6,386.2 257.6,386.2 257.6,386.2 257.6,386.2 257.6,386.2 257.6,386.2 257.6,386.2 257.6,386.2 257.6,386.2 257.6,386.2 257.6,386.2 257.6,386.2 257.6,386.2 257.6,386.2 257.6,386.2 257.6,386.2 257.6,386.2 257.6,386.2 257.6,386.2 257.6,386.2 257.6,386.2 257.6,386.2 257.6,386.2 257.6,386.2 257.6,386.2 257.6,386.2 257.6,386.2 257.6,386.2 257.6,386.2 257.6,386.2 257.6,386.2 257.6,386.2 257.6,386.2 257.6,386.2 257.6,386.2 257.6,386.2 257.6,386.2 257.6,386.2 257.6,386.2 257.6,386.2 257.6,386.2 257.6,386.2 257.6,386.2 257.6,386.2 257.6,386.2 257.6,386.2 257.6,386.2 257.6,386.2 257.6,386.2 257.6,386.2 257.6,386.2 257.6,386.2 257.6,386.2 257.6,386.2 257.6,386.2 257.6,386.2 257.6,386.2 257.6,386.2 257.6,386.2 257.6,386.2 257.6,386.2 257.6,386.2 257.6,386.2 257.6,386.2 257.6,386.2 257.6,386.2 257.6,386.2 257.6,386.2 257.6,386.2 257.6,386.2 257.6,386.2 257.6,386.2 257.6,386.2 257.6,386.2 257.6,386.2 257.6,386.2 257.6,386.2 257.6,386.2 257.6,386.2 257.6,386.2 257.6,386.2 257.6,386.2 257.6,386.2 257.6,386.2 257.6,386.2 257.6,386.2 257.6,386.2 257.6,386.2 257.6,386.2 257.6,386.2 257.6,386.2 244.1,386.2 244.1,386.2 244.1,386.2 244.1,386.2 244.1,386.2 244.1,386.2 244.1,386.2 244.1,386.2 244.1,386.2 244.1,386.2 244.1,386.2 244.1,386.2 244.1,386.2 244.1,386.2 244.1,386.2 244.1,386.2 244.1,386.2 244.1,386.2 244.1,386.2 244.1,386.2 244.1,386.2 244.1,386.2 244.1,386.2 244.1,386.2 244.1,386.2 244.1,386.2 244.1,386.2 244.1,386.2 244.1,386.2 244.1,386.2 244.1,386.2 244.1,386.2 244.1,386.2 244.1,386.2 244.1,386.2 244.1,386.2 244.1,386.2 244.1,386.2 244.1,386.2 244.1,386.2 244.1,386.2 244.1,386.2 244.1,386.2 244.1,386.2 244.1,386.2 244.1,386.2 244.1,386.2 244.1,386.2 244.1,386.2 244.1,386.2 244.1,386.2 244.1,386.2 244.1,386.2 244.1,386.2 244.1,386.2 244.1,386.2 244.1,386.2 244.1,386.2 244.1,386.2 244.1,386.2 244.1,386.2 244.1,386.2 244.1,386.2 244.1,386.2 244.1,386.2 244.1,386.2 244.1,386.2 244.1,386.2 244.1,386.2 244.1,386.2 244.1,386.2 244.1,386.2 244.1,386.2 244.1,386.2 244.1,386.2 244.1,386.2 244.1,386.2 244.1,386.2 244.1,386.2 244.1,386.2 244.1,386.2 244.1,386.2 244.1,386.2 244.1,386.2 244.1,386.2 244.1,386.2 244.1,386.2 244.1,386.2 244.1,386.2 244.1,386.2 244.1,386.2 244.1,386.2 244.1,386.2 244.1,386.2 244.1,386.2 244.1,386.2 244.1,386.2 244.1,386.2 244.1,386.2 244.1,386.2 230.7,386.2 230.7,386.2 230.7,386.2 230.7,386.2 230.7,386.2 230.7,386.2 230.7,386.2 230.7,386.2 230.7,386.2 230.7,386.2 230.7,386.2 230.7,386.2 230.7,386.2 230.7,386.2 230.7,386.2 230.7,386.2 230.7,386.2 230.7,386.2 230.7,386.2 230.7,386.2 230.7,386.2 230.7,386.2 230.7,386.2 230.7,386.2 230.7,386.2 230.7,386.2 230.7,386.2 230.7,386.2 230.7,386.2 230.7,386.2 230.7,386.2 230.7,386.2 230.7,386.2 230.7,386.2 230.7,386.2 230.7,386.2 230.7,386.2 230.7,386.2 230.7,386.2 230.7,386.2 230.7,386.2 230.7,386.2 230.7,386.2 230.7,386.2 230.7,386.2 230.7,386.2 230.7,386.2 230.7,386.2 230.7,386.2 230.7,386.2 230.7,386.2 230.7,386.2 230.7,386.2 230.7,386.2 230.7,386.2 230.7,386.2 230.7,386.2 230.7,386.2 230.7,386.2 230.7,386.2 230.7,386.2 230.7,386.2 230.7,386.2 230.7,386.2 230.7,386.2 230.7,386.2 230.7,386.2 230.7,386.2 230.7,386.2 230.7,386.2 230.7,386.2 230.7,386.2 230.7,386.2 230.7,386.2 230.7,386.2 230.7,386.2 230.7,386.2 230.7,386.2 230.7,386.2 230.7,386.2 230.7,386.2 230.7,386.2 230.7,386.2 230.7,386.2 230.7,386.2 230.7,386.2 230.7,386.2 230.7,386.2 230.7,386.2 230.7,386.2 230.7,386.2 230.7,386.2 230.7,386.2 230.7,386.2 230.7,386.2 230.7,386.2 230.7,386.2 230.7,386.2 230.7,386.2 230.7,386.2 217.5,386.2 217.5,386.2 217.5,386.2 217.5,386.2 217.5,386.2 217.5,386.2 217.5,386.2 217.5,386.2 217.5,386.2 217.5,386.2 217.5,386.2 217.5,386.2 217.5,386.2 217.5,386.2 217.5,386.2 217.5,386.2 217.5,386.2 217.5,386.2 217.5,386.2 217.5,386.2 217.5,386.2 217.5,386.2 217.5,386.2 217.5,386.2 217.5,386.2 217.5,386.2 217.5,386.2 217.5,386.2 217.5,386.2 217.5,386.2 217.5,386.2 217.5,386.2 217.5,386.2 217.5,386.2 217.5,386.2 217.5,386.2 217.5,386.2 217.5,386.2 217.5,386.2 217.5,386.2 217.5,386.2 217.5,386.2 217.5,386.2 217.5,386.2 217.5,386.2 217.5,386.2 217.5,386.2 217.5,386.2 217.5,386.2 217.5,386.2 217.5,386.2 217.5,386.2 217.5,386.2 217.5,386.2 217.5,386.2 217.5,386.2 217.5,386.2 217.5,386.2 217.5,386.2 217.5,386.2 217.5,386.2 217.5,386.2 217.5,386.2 217.5,386.2 217.5,386.2 217.5,386.2 217.5,386.2 217.5,386.2 217.5,386.2 217.5,386.2 217.5,386.2 217.5,386.2 217.5,386.2 217.5,386.2 217.5,386.2 217.5,386.2 217.5,386.2 217.5,386.2 217.5,386.2 217.5,386.2 217.5,386.2 217.5,386.2 217.5,386.2 217.5,386.2 217.5,386.2 217.5,386.2 217.5,386.2 217.5,386.2 217.5,386.2 217.5,386.2 217.5,386.2 217.5,386.2 217.5,386.2 217.5,386.2 217.5,386.2 217.5,386.2 217.5,386.2 217.5,386.2 217.5,386.2 217.5,386.2 204.4,386.2 204.4,386.2 204.4,386.2 204.4,386.2 204.4,386.2 204.4,386.2 204.4,386.2 204.4,386.2 204.4,386.2 204.4,386.2 204.4,386.2 204.4,386.2 204.4,386.2 204.4,386.2 204.4,386.2 204.4,386.2 204.4,386.2 204.4,386.2 204.4,386.2 204.4,386.2 204.4,386.2 204.4,386.2 204.4,386.2 204.4,386.2 204.4,386.2 204.4,386.2 204.4,386.2 204.4,386.2 204.4,386.2 204.4,386.2 204.4,386.2 204.4,386.2 204.4,386.2 204.4,386.2 204.4,386.2 204.4,386.2 204.4,386.2 204.4,386.2 204.4,386.2 204.4,386.2 204.4,386.2 204.4,386.2 204.4,386.2 204.4,386.2 204.4,386.2 204.4,386.2 204.4,386.2 204.4,386.2 204.4,386.2 204.4,386.2 204.4,386.2 204.4,386.2 204.4,386.2 204.4,386.2 204.4,386.2 204.4,386.2 204.4,386.2 204.4,386.2 204.4,386.2 204.4,386.2 204.4,386.2 204.4,386.2 204.4,386.2 204.4,386.2 204.4,386.2 204.4,386.2 204.4,386.2 204.4,386.2 204.4,386.2 204.4,386.2 204.4,386.2 204.4,386.2 204.4,386.2 204.4,386.2 204.4,386.2 204.4,386.2 204.4,386.2 204.4,386.2 204.4,386.2 204.4,386.2 204.4,386.2 204.4,386.2 204.4,386.2 204.4,386.2 204.4,386.2 204.4,386.2 204.4,386.2 204.4,386.2 204.4,386.2 204.4,386.2 204.4,386.2 204.4,386.2 204.4,386.2 204.4,386.2 204.4,386.2 204.4,386.2 204.4,386.2 204.4,386.2 204.4,386.2 204.4,386.2 191.4,386.2 191.4,386.2 191.4,386.2 191.4,386.2 191.4,386.2 191.4,386.2 191.4,386.2 191.4,386.2 191.4,386.2 191.4,386.2 191.4,386.2 191.4,386.2 191.4,386.2 191.4,386.2 191.4,386.2 191.4,386.2 191.4,386.2 191.4,386.2 191.4,386.2 191.4,386.2 191.4,386.2 191.4,386.2 191.4,386.2 191.4,386.2 191.4,386.2 191.4,386.2 191.4,386.2 191.4,386.2 191.4,386.2 191.4,386.2 191.4,386.2 191.4,386.2 191.4,386.2 191.4,386.2 191.4,386.2 191.4,386.2 191.4,386.2 191.4,386.2 191.4,386.2 191.4,386.2 191.4,386.2 191.4,386.2 191.4,386.2 191.4,386.2 191.4,386.2 191.4,386.2 191.4,386.2 191.4,386.2 191.4,386.2 191.4,386.2 191.4,386.2 191.4,386.2 191.4,386.2 191.4,386.2 191.4,386.2 191.4,386.2 191.4,386.2 191.4,386.2 191.4,386.2 191.4,386.2 191.4,386.2 191.4,386.2 191.4,386.2 191.4,386.2 191.4,386.2 191.4,386.2 191.4,386.2 191.4,386.2 191.4,386.2 191.4,386.2 191.4,386.2 191.4,386.2 191.4,386.2 191.4,386.2 191.4,386.2 191.4,386.2 191.4,386.2 191.4,386.2 191.4,386.2 191.4,386.2 191.4,386.2 191.4,386.2 191.4,386.2 191.4,386.2 191.4,386.2 191.4,386.2 191.4,386.2 191.4,386.2 191.4,386.2 191.4,386.2 191.4,386.2 191.4,386.2 191.4,386.2 191.4,386.2 191.4,386.2 191.4,386.2 191.4,386.2 191.4,386.2 191.4,386.2 191.4,386.2 178.6,386.2 178.6,386.2 178.6,386.2 178.6,386.2 178.6,386.2 178.6,386.2 178.6,386.2 178.6,386.2 178.6,386.2 178.6,386.2 178.6,386.2 178.6,386.2 178.6,386.2 178.6,386.2 178.6,386.2 178.6,386.2 178.6,386.2 178.6,386.2 178.6,386.2 178.6,386.2 178.6,386.2 178.6,386.2 178.6,386.2 178.6,386.2 178.6,386.2 178.6,386.2 178.6,386.2 178.6,386.2 178.6,386.2 178.6,386.2 178.6,386.2 178.6,386.2 178.6,386.2 178.6,386.2 178.6,386.2 178.6,386.2 178.6,386.2 178.6,386.2 178.6,386.2 178.6,386.2 178.6,386.2 178.6,386.2 178.6,386.2 178.6,386.2 178.6,386.2 178.6,386.2 178.6,386.2 178.6,386.2 178.6,386.2 178.6,386.2 178.6,386.2 178.6,386.2 178.6,386.2 178.6,386.2 178.6,386.2 178.6,386.2 178.6,386.2 178.6,386.2 178.6,386.2 178.6,386.2 178.6,386.2 178.6,386.2 178.6,386.2 178.6,386.2 178.6,386.2 178.6,386.2 178.6,386.2 178.6,386.2 178.6,386.2 178.6,386.2 178.6,386.2 178.6,386.2 178.6,386.2 178.6,386.2 178.6,386.2 178.6,386.2 178.6,386.2 178.6,386.2 178.6,386.2 178.6,386.2 178.6,386.2 178.6,386.2 178.6,386.2 178.6,386.2 178.6,386.2 178.6,386.2 178.6,386.2 178.6,386.2 178.6,386.2 178.6,386.2 178.6,386.2 178.6,386.2 178.6,386.2 178.6,386.2 178.6,386.2 178.6,386.2 178.6,386.2 178.6,386.2 178.6,386.2 178.6,386.2 165.8,386.2 165.8,386.2 165.8,386.2 165.8,386.2 165.8,386.2 165.8,386.2 165.8,386.2 165.8,386.2 165.8,386.2 165.8,386.2 165.8,386.2 165.8,386.2 165.8,386.2 165.8,386.2 165.8,386.2 165.8,386.2 165.8,386.2 165.8,386.2 165.8,386.2 165.8,386.2 165.8,386.2 165.8,386.2 165.8,386.2 165.8,386.2 165.8,386.2 165.8,386.2 165.8,386.2 165.8,386.2 165.8,386.2 165.8,386.2 165.8,386.2 165.8,386.2 165.8,386.2 165.8,386.2 165.8,386.2 165.8,386.2 165.8,386.2 165.8,386.2 165.8,386.2 165.8,386.2 165.8,386.2 165.8,386.2 165.8,386.2 165.8,386.2 165.8,386.2 165.8,386.2 165.8,386.2 165.8,386.2 165.8,386.2 165.8,386.2 165.8,386.2 165.8,386.2 165.8,386.2 165.8,386.2 165.8,386.2 165.8,386.2 165.8,386.2 165.8,386.2 165.8,386.2 165.8,386.2 165.8,386.2 165.8,386.2 165.8,386.2 165.8,386.2 165.8,386.2 165.8,386.2 165.8,386.2 165.8,386.2 165.8,386.2 165.8,386.2 165.8,386.2 165.8,386.2 165.8,386.2 165.8,386.2 165.8,386.2 165.8,386.2 165.8,386.2 165.8,386.2 165.8,386.2 165.8,386.2 165.8,386.2 165.8,386.2 165.8,386.2 165.8,386.2 165.8,386.2 165.8,386.2 165.8,386.2 165.8,386.2 165.8,386.2 165.8,386.2 165.8,386.2 165.8,386.2 165.8,386.2 165.8,386.2 165.8,386.2 165.8,386.2 165.8,386.2 165.8,386.2 165.8,386.2 165.8,386.2 153.3,386.2 153.3,386.2 153.3,386.2 153.3,386.2 153.3,386.2 153.3,386.2 153.3,386.2 153.3,386.2 153.3,386.2 153.3,386.2 153.3,386.2 153.3,386.2 153.3,386.2 153.3,386.2 153.3,386.2 153.3,386.2 153.3,386.2 153.3,386.2 153.3,386.2 153.3,386.2 153.3,386.2 153.3,386.2 153.3,386.2 153.3,386.2 153.3,386.2 153.3,386.2 153.3,386.2 153.3,386.2 153.3,386.2 153.3,386.2 153.3,386.2 153.3,386.2 153.3,386.2 153.3,386.2 153.3,386.2 153.3,386.2 153.3,386.2 153.3,386.2 153.3,386.2 153.3,386.2 153.3,386.2 153.3,386.2 153.3,386.2 153.3,386.2 153.3,386.2 153.3,386.2 153.3,386.2 153.3,386.2 153.3,386.2 153.3,386.2 153.3,386.2 153.3,386.2 153.3,386.2 153.3,386.2 153.3,386.2 153.3,386.2 153.3,386.2 153.3,386.2 153.3,386.2 153.3,386.2 153.3,386.2 153.3,386.2 153.3,386.2 153.3,386.2 153.3,386.2 153.3,386.2 153.3,386.2 153.3,386.2 153.3,386.2 153.3,386.2 153.3,386.2 153.3,386.2 153.3,386.2 153.3,386.2 153.3,386.2 153.3,386.2 153.3,386.2 153.3,386.2 153.3,386.2 153.3,386.2 153.3,386.2 153.3,386.2 153.3,386.2 153.3,386.2 153.3,386.2 153.3,386.2 153.3,386.2 153.3,386.2 153.3,386.2 153.3,386.2 153.3,386.2 153.3,386.2 153.3,386.2 153.3,386.2 153.3,386.2 153.3,386.2 153.3,386.2 153.3,386.2 153.3,386.2 153.3,386.2 140.8,386.2 140.8,386.2 140.8,386.2 140.8,386.2 140.8,386.2 140.8,386.2 140.8,386.2 140.8,386.2 140.8,386.2 140.8,386.2 140.8,386.2 140.8,386.2 140.8,386.2 140.8,386.2 140.8,386.2 140.8,386.2 140.8,386.2 140.8,386.2 140.8,386.2 140.8,386.2 140.8,386.2 140.8,386.2 140.8,386.2 140.8,386.2 140.8,386.2 140.8,386.2 140.8,386.2 140.8,386.2 140.8,386.2 140.8,386.2 140.8,386.2 140.8,386.2 140.8,386.2 140.8,386.2 140.8,386.2 140.8,386.2 140.8,386.2 140.8,386.2 140.8,386.2 140.8,386.2 140.8,386.2 140.8,386.2 140.8,386.2 140.8,386.2 140.8,386.2 140.8,386.2 140.8,386.2 140.8,386.2 140.8,386.2 140.8,386.2 140.8,386.2 140.8,386.2 140.8,386.2 140.8,386.2 140.8,386.2 140.8,386.2 140.8,386.2 140.8,386.2 140.8,386.2 140.8,386.2 140.8,386.2 140.8,386.2 140.8,386.2 140.8,386.2 140.8,386.2 140.8,386.2 140.8,386.2 140.8,386.2 140.8,386.2 140.8,386.2 140.8,386.2 140.8,386.2 140.8,386.2 140.8,386.2 140.8,386.2 140.8,386.2 140.8,386.2 140.8,386.2 140.8,386.2 140.8,386.2 140.8,386.2 140.8,386.2 140.8,386.2 140.8,386.2 140.8,386.2 140.8,386.2 140.8,386.2 140.8,386.2 140.8,386.2 140.8,386.2 140.8,386.2 140.8,386.2 140.8,386.2 140.8,386.2 140.8,386.2 140.8,386.2 140.8,386.2 140.8,386.2 140.8,386.2 140.8,386.2 128.5,386.2 128.5,386.2 128.5,386.2 128.5,386.2 128.5,386.2 128.5,386.2 128.5,386.2 128.5,386.2 128.5,386.2 128.5,386.2 128.5,386.2 128.5,386.2 128.5,386.2 128.5,386.2 128.5,386.2 128.5,386.2 128.5,386.2 128.5,386.2 128.5,386.2 128.5,386.2 128.5,386.2 128.5,386.2 128.5,386.2 128.5,386.2 128.5,386.2 128.5,386.2 128.5,386.2 128.5,386.2 128.5,386.2 128.5,386.2 128.5,386.2 128.5,386.2 128.5,386.2 128.5,386.2 128.5,386.2 128.5,386.2 128.5,386.2 128.5,386.2 128.5,386.2 128.5,386.2 128.5,386.2 128.5,386.2 128.5,386.2 128.5,386.2 128.5,386.2 128.5,386.2 128.5,386.2 128.5,386.2 128.5,386.2 128.5,386.2 128.5,386.2 128.5,386.2 128.5,386.2 128.5,386.2 128.5,386.2 128.5,386.2 128.5,386.2 128.5,386.2 128.5,386.2 128.5,386.2 128.5,386.2 128.5,386.2 128.5,386.2 128.5,386.2 128.5,386.2 128.5,386.2 128.5,386.2 128.5,386.2 128.5,386.2 128.5,386.2 128.5,386.2 128.5,386.2 128.5,386.2 128.5,386.2 128.5,386.2 128.5,386.2 128.5,386.2 128.5,386.2 128.5,386.2 128.5,386.2 128.5,386.2 128.5,386.2 128.5,386.2 128.5,386.2 128.5,386.2 128.5,386.2 128.5,386.2 128.5,386.2 128.5,386.2 128.5,386.2 128.5,386.2 128.5,386.2 128.5,386.2 128.5,386.2 128.5,386.2 128.5,386.2 128.5,386.2 128.5,386.2 128.5,386.2 128.5,386.2 116.3,386.2 116.3,386.2 116.3,386.2 116.3,386.2 116.3,386.2 116.3,386.2 116.3,386.2 116.3,386.2 116.3,386.2 116.3,386.2 116.3,386.2 116.3,386.2 116.3,386.2 116.3,386.2 116.3,386.2 116.3,386.2 116.3,386.2 116.3,386.2 116.3,386.2 116.3,386.2 116.3,386.2 116.3,386.2 116.3,386.2 116.3,386.2 116.3,386.2 116.3,386.2 116.3,386.2 116.3,386.2 116.3,386.2 116.3,386.2 116.3,386.2 116.3,386.2 116.3,386.2 116.3,386.2 116.3,386.2 116.3,386.2 116.3,386.2 116.3,386.2 116.3,386.2 116.3,386.2 116.3,386.2 116.3,386.2 116.3,386.2 116.3,386.2 116.3,386.2 116.3,386.2 116.3,386.2 116.3,386.2 116.3,386.2 116.3,386.2 116.3,386.2 116.3,386.2 116.3,386.2 116.3,386.2 116.3,386.2 116.3,386.2 116.3,386.2 116.3,386.2 116.3,386.2 116.3,386.2 116.3,386.2 116.3,386.2 116.3,386.2 116.3,386.2 116.3,386.2 116.3,386.2 116.3,386.2 116.3,386.2 116.3,386.2 116.3,386.2 116.3,386.2 116.3,386.2 116.3,386.2 116.3,386.2 116.3,386.2 116.3,386.2 116.3,386.2 116.3,386.2 116.3,386.2 116.3,386.2 116.3,386.2 116.3,386.2 116.3,386.2 116.3,386.2 116.3,386.2 116.3,386.2 116.3,386.2 116.3,386.2 116.3,386.2 116.3,386.2 116.3,386.2 116.3,386.2 116.3,386.2 116.3,386.2 116.3,386.2 116.3,386.2 116.3,386.2 116.3,386.2 116.3,386.2 116.3,386.2 104.2,386.2 104.2,386.2 104.2,386.2 104.2,386.2 104.2,386.2 104.2,386.2 104.2,386.2 104.2,386.2 104.2,386.2 104.2,386.2 104.2,386.2 104.2,386.2 104.2,386.2 104.2,386.2 104.2,386.2 104.2,386.2 104.2,386.2 104.2,386.2 104.2,386.2 104.2,386.2 104.2,386.2 104.2,386.2 104.2,386.2 104.2,386.2 104.2,386.2 104.2,386.2 104.2,386.2 104.2,386.2 104.2,386.2 104.2,386.2 104.2,386.2 104.2,386.2 104.2,386.2 104.2,386.2 104.2,386.2 104.2,386.2 104.2,386.2 104.2,386.2 104.2,386.2 104.2,386.2 104.2,386.2 104.2,386.2 104.2,386.2 104.2,386.2 104.2,386.2 104.2,386.2 104.2,386.2 104.2,386.2 104.2,386.2 104.2,386.2 104.2,386.2 104.2,386.2 104.2,386.2 104.2,386.2 104.2,386.2 104.2,386.2 104.2,386.2 104.2,386.2 104.2,386.2 104.2,386.2 104.2,386.2 104.2,386.2 104.2,386.2 104.2,386.2 104.2,386.2 104.2,386.2 104.2,386.2 104.2,386.2 104.2,386.2 104.2,386.2 104.2,386.2 104.2,386.2 104.2,386.2 104.2,386.2 104.2,386.2 104.2,386.2 104.2,386.2 104.2,386.2 104.2,386.2 104.2,386.2 104.2,386.2 104.2,386.2 104.2,386.2 104.2,386.2 104.2,386.2 104.2,386.2 104.2,386.2 104.2,386.2 104.2,386.2 104.2,386.2 104.2,386.2 104.2,386.2 104.2,386.2 104.2,386.2 104.2,386.2 104.2,386.2 104.2,386.2 104.2,386.2 104.2,386.2 104.2,386.2 92.2,386.2 92.2,386.2 92.2,386.2 92.2,386.2 92.2,386.2 92.2,386.2 92.2,386.2 92.2,386.2 92.2,386.2 92.2,386.2 92.2,386.2 92.2,386.2 92.2,386.2 92.2,386.2 92.2,386.2 92.2,386.2 92.2,386.2 92.2,386.2 92.2,386.2 92.2,386.2 92.2,386.2 92.2,386.2 92.2,386.2 92.2,386.2 92.2,386.2 92.2,386.2 92.2,386.2 92.2,386.2 92.2,386.2 92.2,386.2 92.2,386.2 92.2,386.2 92.2,386.2 92.2,386.2 92.2,386.2 92.2,386.2 92.2,386.2 92.2,386.2 92.2,386.2 92.2,386.2 92.2,386.2 92.2,386.2 92.2,386.2 92.2,386.2 92.2,386.2 92.2,386.2 92.2,386.2 92.2,386.2 92.2,386.2 92.2,386.2 92.2,386.2 92.2,386.2 92.2,386.2 92.2,386.2 92.2,386.2 92.2,386.2 92.2,386.2 92.2,386.2 92.2,386.2 92.2,386.2 92.2,386.2 92.2,386.2 92.2,386.2 92.2,386.2 92.2,386.2 92.2,386.2 92.2,386.2 92.2,386.2 92.2,386.2 92.2,386.2 92.2,386.2 92.2,386.2 92.2,386.2 92.2,386.2 92.2,386.2 92.2,386.2 92.2,386.2 92.2,386.2 92.2,386.2 92.2,386.2 92.2,386.2 92.2,386.2 92.2,386.2 92.2,386.2 92.2,386.2 92.2,386.2 92.2,386.2 92.2,386.2 92.2,386.2 92.2,386.2 92.2,386.2 92.2,386.2 92.2,386.2 92.2,386.2 92.2,386.2 92.2,386.2 92.2,386.2 92.2,386.2 92.2,386.2 92.2,386.2 82,386.2 " />
</g>

<g fill="none" stroke="#000000" stroke-opacity="1" stroke-width="1" stroke-linecap="square" stroke-linejoin="bevel" transform="matrix(1.00313,0,0,1.00313,0,0)"
font-family="Noto Sans" font-size="9" font-weight="400" font-style="normal" 
>
</g>

<g fill="none" stroke="#000000" stroke-opacity="1" stroke-width="1" stroke-linecap="square" stroke-linejoin="bevel" transform="matrix(1.00313,0,0,1.00313,0,0)"
font-family="Noto Sans" font-size="9" font-weight="400" font-style="normal" 
>
</g>

<g fill="none" stroke="#000000" stroke-opacity="1" stroke-width="1" stroke-linecap="butt" stroke-linejoin="miter" stroke-miterlimit="2" transform="matrix(1.00313,0,0,1.00313,0,0)"
font-family="Noto Sans" font-size="9" font-weight="400" font-style="normal" 
>
<polyline fill="none" vector-effect="none" points="82.5,42.5 82.5,435.5 615.5,435.5 615.5,42.5 82.5,42.5 " />
</g>

<g fill="none" stroke="#000000" stroke-opacity="1" stroke-width="1" stroke-linecap="square" stroke-linejoin="bevel" transform="matrix(1.00313,0,0,1.00313,0,0)"
font-family="Noto Sans" font-size="9" font-weight="400" font-style="normal" 
>
</g>

<g fill="none" stroke="#000000" stroke-opacity="1" stroke-width="1" stroke-linecap="square" stroke-linejoin="bevel" transform="matrix(1,0,0,1,0,0)"
font-family="Noto Sans" font-size="9" font-weight="400" font-style="normal" 
>
</g>
</g>
</svg>
